<svg width="1247" height="762" viewBox="0 0 1247 762" fill="none" xmlns="http://www.w3.org/2000/svg">
<rect width="1247" height="762" fill="white"/>
<path fill-rule="evenodd" clip-rule="evenodd" d="M669.217 623.78C741.646 623.78 805.206 569.903 769.511 496.725C733.815 423.547 866.447 425.91 905.408 375.334C952.921 313.655 939.162 51.8343 634.141 211.453C585.281 237.022 459.796 185.148 418.172 210.887C369.176 241.184 300.242 303.222 369.176 366.772C403.132 398.075 281.393 479.324 334.712 552.102C386.738 623.115 423.208 555.419 502.416 569.903C581.625 584.388 615.425 623.78 669.217 623.78Z" fill="#D9F8FE"/>
<path d="M585.15 496.471C585.15 496.471 601.826 488.626 608.053 483.168C614.279 477.711 622.019 464.151 622.019 464.151C622.019 464.151 707.042 525.554 762.48 516.795C775.253 514.777 800.142 506.287 801.729 491.328C806.063 450.479 746.099 440.04 759.198 419.325C767.193 406.68 792.03 425.499 792.03 425.499L895.048 476.171C895.048 476.171 859.458 563.901 773.09 567.417C666.846 571.742 585.15 496.471 585.15 496.471Z" fill="white"/>
<path fill-rule="evenodd" clip-rule="evenodd" d="M503.473 152.901C502.506 152.521 497.314 146.163 490.721 145.006C487.726 144.48 490.445 148.295 487.148 148.329C477.329 148.431 461.372 146.586 458.416 148.329C456.219 149.62 461.057 154.13 458.416 154.337C433.494 156.29 395.475 181.174 387.226 193.246C384.601 197.088 405.832 190.569 402.449 192.469C398.652 194.6 394.442 208.559 391.924 219.34C390.181 226.763 389.084 236.318 388.696 246.711C388.373 255.684 388.503 257.169 389.794 262.075C391.278 267.562 392.44 269.176 394.442 268.401C395.152 268.143 395.475 267.175 395.475 265.367C395.475 263.947 396.249 259.687 397.217 255.878L398.896 249.035L399.606 251.875C400.51 255.168 405.803 265.367 410.58 272.791C410.838 273.185 411.947 272.684 412.946 270.268C413.857 268.066 413.487 264.549 415.035 260.779C418.559 252.193 425.48 241.028 433.494 232.092C445.338 218.884 449.267 203.599 460.37 191.329C481.089 168.431 507.093 154.322 503.473 152.901Z" fill="white"/>
<path fill-rule="evenodd" clip-rule="evenodd" d="M402.744 195.584C399.42 198.257 394.487 219.935 394.402 220.297C392.659 227.721 390.979 253.502 392.696 258.382C394.414 263.263 399.223 245.669 399.223 245.669C399.223 245.669 406.491 264.543 412.914 269.718C413.188 269.939 405.28 246.366 402.744 232.605C399.396 214.44 404.635 194.063 402.744 195.584Z" fill="#E7EAEE"/>
<path fill-rule="evenodd" clip-rule="evenodd" d="M526.624 575.247C532.821 573.892 543.278 569.171 547.282 567.556C551.285 565.942 563.485 548.715 567.875 529.284C571.038 514.953 572.652 494.553 570.844 491.132C570.577 490.646 569.601 481.37 572.2 484.399C577.978 491.132 584.837 501.702 606.478 482.762C612.372 477.603 620.185 470.945 618.128 465.059C612.372 448.591 587.423 415.431 583.62 412.919C579.072 409.916 556.087 412.468 521.88 402.372C483.086 390.922 466.933 357.205 451.752 361.594C439.475 365.144 410.06 386.956 402.678 400.769C367.826 465.98 410.06 511.674 419.678 524.799L429.017 528.832L429.339 537.16L429.791 542.389C430.63 552.395 430.953 553.299 435.472 556.655C446.769 565.241 469.041 573.246 489.182 576.087C498.542 577.378 518.877 576.926 526.624 575.247Z" fill="white"/>
<path fill-rule="evenodd" clip-rule="evenodd" d="M432.69 534.111L433.141 539.34C433.981 549.346 434.303 550.25 438.822 553.607C445.487 558.672 455.971 563.535 467.583 567.255C475.655 569.84 484.273 571.873 492.532 573.038C501.893 574.329 522.227 573.877 529.974 572.199C533.803 571.369 502.307 546.625 483.752 553.607C469.503 558.969 435.919 518.069 449.574 507.384C464.892 495.398 436.823 448.122 435.919 437.858C435.015 427.594 431.456 425.142 431.352 425.502C431.248 425.862 431.248 427.09 431.528 430.049C432.732 442.802 432.69 534.111 432.69 534.111Z" fill="#E7EAEE"/>
<path fill-rule="evenodd" clip-rule="evenodd" d="M429.327 434.928C430.682 434.664 431.994 435.549 432.258 436.904C437.13 461.935 457.739 478.881 494.59 487.742C531.661 496.656 556.911 496.175 570.216 486.66C571.339 485.857 570.502 492.735 569.679 493.263C561.002 498.828 531.499 507.131 496.291 499.626C451.274 490.031 430.137 452.178 427.35 437.859C427.086 436.504 427.971 435.191 429.327 434.928Z" fill="#FFB61D"/>
<path fill-rule="evenodd" clip-rule="evenodd" d="M410.554 389.766C411.752 389.081 456.464 440.324 517.824 451.923C579.183 463.522 594.04 456.145 596.428 440.324C596.634 438.959 597.908 438.019 599.273 438.225C600.638 438.431 601.578 439.705 601.372 441.07C598.345 461.121 569.953 465.891 516.983 456.852C464.678 447.926 428.818 426.72 409.626 393.178C408.94 391.979 409.356 390.452 410.554 389.766Z" fill="#FFB61D"/>
<path d="M568.159 138C593.93 137.957 604.613 142.092 620.68 148.311C622.621 149.062 624.641 149.844 626.775 150.653C673.943 168.52 690.436 203.929 694.537 212.735C694.708 213.102 694.859 213.424 694.988 213.696C708.48 242.1 712.569 268.854 707.275 299.905C706.565 304.1 706.114 307.65 706.243 307.78C706.372 307.909 707.857 307.263 709.6 306.36C712.182 304.939 713.28 304.746 715.603 305.069C719.606 305.65 721.349 306.618 722.834 309.006C725.029 312.621 725.093 318.302 723.027 328.179C722.64 329.922 722.64 329.922 726.126 329.922C730.515 329.922 732.065 331.02 733.421 335.022C734.195 337.41 734.324 338.96 733.872 341.736C733.336 345.014 739.241 347.632 766.482 359.706C768.74 360.707 771.144 361.772 773.703 362.909C788.874 369.622 801.591 373.174 801.914 373.174C802.302 373.173 803.27 371.753 804.044 369.947C806.691 364.072 813.146 359.876 822.184 358.198C826.317 357.43 832.249 357.587 835.676 359.295C839.539 361.222 844.52 367.88 846.005 372.658L846.779 374.982L850.459 373.303C853.622 371.818 854.978 371.561 859.948 371.561C866.339 371.561 867.373 371.884 874.474 376.596C879.251 379.695 882.349 383.826 883.834 388.991L884.867 392.411L888.224 391.12C895.389 388.409 904.04 390.669 910.431 396.931C914.046 400.611 916.692 404.193 916.692 411.779C916.692 418.187 911.658 443.862 909.592 450.318C904.879 464.649 890.748 506.157 874.861 524.039C860.699 539.981 855.523 543.045 846.837 548.188C845.78 548.814 844.671 549.471 843.487 550.185C818.569 565.226 791.133 572.069 756.338 572.069C735.616 572.069 720.187 570.196 698.496 564.903C654.986 554.38 613.089 531.916 584.943 503.963C584.042 503.062 582.732 501.717 581.27 500.216C576.449 495.266 569.975 488.619 571.064 490.6C572.872 494.021 571.258 514.421 568.095 528.752C563.705 548.183 551.506 565.41 547.502 567.025C546.715 567.342 545.68 567.779 544.477 568.286C539.554 570.364 531.823 573.626 526.844 574.715C519.097 576.394 498.763 576.846 489.402 575.555C469.261 572.715 446.989 564.709 435.692 556.123C431.174 552.767 430.851 551.863 430.012 541.857L429.56 536.628L426.59 534.497C421.877 531.076 410.58 519.972 406.836 514.872C403.754 510.795 399.455 501.774 397.234 497.117C396.431 495.432 395.9 494.318 395.797 494.215C394.635 493.245 390.439 479.561 389.406 473.235C384.952 446.573 391.279 415.329 405.352 394.155C415.358 379.049 430.076 367.236 444.149 362.91C448.475 361.555 456.35 360.973 455.123 362.135C454.8 362.393 451.96 363.427 448.732 364.395C428.979 370.398 415.487 382.793 404.513 405.129C391.602 431.339 388.308 460.459 397.669 486.41C398.01 487.336 398.37 488.39 398.76 489.534C400.437 494.451 402.678 501.025 406.449 506.158C410.903 512.161 423.685 525.137 427.042 527.074L429.237 528.3L428.85 525.137C427.107 511.258 426.784 445.218 428.397 432.565C429.108 427.013 429.753 425.464 431.367 425.464C432.142 425.464 432.27 428.046 432.27 439.795C432.27 468.199 435.498 529.591 437.822 545.536C437.95 546.36 438.072 547.149 438.185 547.88C438.583 550.469 438.869 552.326 438.92 552.379C439.759 552.96 452.219 558.189 457.061 559.996C475.33 566.839 499.279 570.455 515.547 568.841C528.393 567.55 537.671 565.431 543.868 560.719C545.547 559.428 551.116 554.703 554.021 548.377C559.315 536.693 564.545 517.907 567.708 498.864C568.676 492.925 569.708 488.277 570.031 488.535C570.354 488.793 569.45 487.179 568.03 484.855C564.48 478.98 561.381 473.041 561.381 472.073C561.381 469.878 564.092 472.202 568.869 478.658C571.709 482.531 575.389 486.727 576.938 487.953C578.488 489.245 582.813 492.924 586.558 496.152C608.054 514.873 628.131 528.236 650.79 539.146C686.231 556.059 727.094 565.355 760.34 563.999C811.532 561.934 853.364 542.179 874.861 509.902C877.122 506.478 893.471 479.439 892.549 478.399C892.078 477.869 889.843 478.361 887.654 478.842C886.016 479.202 884.404 479.557 883.575 479.474C879.96 479.087 866.381 475.241 865.113 466.069C864.95 464.894 862.26 461.461 862.26 461.461C862.26 461.461 859.561 462.066 856.269 463.616C849.942 466.585 843.681 464.972 835.611 458.258C831.351 454.708 829.35 451.157 829.285 447.284C829.285 445.025 827.212 442.231 826.639 441.894C826.065 441.557 823.283 442.669 822.443 443.573C819.151 447.123 807.211 446.776 802.365 444.185C799.606 442.709 795.329 438.375 794.425 435.018C794.342 434.747 794.248 434.307 794.131 433.766C793.608 431.343 792.642 426.873 790.358 426.239C789.584 425.851 785.775 424.044 781.837 422.237C777.964 420.365 773.251 418.17 771.443 417.33C768.409 415.846 767.893 415.78 765.182 416.491C762.212 417.201 760.211 420.687 760.211 422.237C760.211 424.625 761.244 429.079 764.019 433.017C768.409 439.279 775.058 445.153 785.839 452.319C795.522 458.774 797.653 460.84 800.881 466.844C804.173 473.041 805.529 479.432 805.658 489.18C805.722 496.281 784 524.039 753.756 521.328C723.512 518.617 690.427 510.031 669.705 499.702C647.692 488.664 628.261 474.397 610.443 455.998C602.051 447.413 601.405 446.573 593.853 433.856C584.364 417.783 583.782 416.685 584.233 414.877C584.556 413.522 584.556 413.521 577.649 413.973C569.838 414.554 555.507 413.715 546.856 412.23C524.52 408.357 504.637 399.383 485.013 384.407C483.334 383.116 482.107 382.471 482.301 382.987C482.624 383.761 481.656 384.149 478.234 384.665C473.006 385.569 468.293 384.536 466.033 382.083C462.547 378.275 458.029 366.654 457.706 360.586C457.577 357.552 457.125 355.809 456.479 355.357C455.963 354.969 455.511 354.13 455.511 353.485C455.511 352.775 455.188 352.517 454.607 352.71C454.091 352.904 453.187 352.517 452.541 351.807C452.473 351.732 452.061 351.442 451.377 350.963L451.374 350.961L451.373 350.96C446.168 347.312 425.327 332.705 421.619 317.98C417.423 301.314 415.616 290.479 415.035 286.025C413.938 278.149 413.872 277.827 410.58 272.791C405.803 265.368 400.51 255.168 399.606 251.875L398.895 249.035L397.218 255.877C396.249 259.686 395.475 263.947 395.475 265.368C395.475 267.175 395.151 268.143 394.441 268.402C392.44 269.176 391.279 267.561 389.794 262.075C388.503 257.169 388.374 255.684 388.696 246.711C389.084 236.318 390.181 226.763 391.924 219.339C394.441 208.559 398.444 198.423 401.478 195.131C402.834 193.647 404.513 193.195 404.513 194.357C404.513 194.744 404.06 195.002 403.544 195.002C401.026 195.002 395.41 213.078 393.279 227.732C392.247 235.155 391.795 258.258 392.763 258.266C393.021 258.266 393.861 256.329 394.7 254.005C396.443 249.035 399.09 244.709 400.445 244.709C401.091 244.709 401.155 245.032 400.768 245.743C400.058 246.969 401.027 250.649 402.705 253.102C402.931 253.453 403.448 254.28 404.147 255.399L404.148 255.402L404.149 255.404L404.151 255.406L404.154 255.411C405.257 257.175 406.809 259.657 408.386 262.14L412.969 269.564L412.582 261.171C412.259 255.878 412.388 250.714 412.904 247.292C413.614 241.676 415.293 237.157 416.455 237.48C417.229 237.674 417.23 239.933 416.262 248.518C415.81 252.198 415.616 255.361 415.745 255.555C415.939 255.683 416.455 254.973 416.972 253.941C417.553 252.972 419.231 250.648 420.78 248.841C422.394 247.034 424.459 243.935 425.428 241.934C427.235 238.254 434.982 228.893 438.92 225.601C440.469 224.31 441.954 221.986 443.633 218.243C454.543 193.324 474.038 171.44 497.988 157.367C504.121 153.752 504.572 153.364 503.152 152.848C502.378 152.525 499.473 151.169 496.826 149.878C494.932 148.954 493.17 148.13 492.227 147.688C491.852 147.512 491.606 147.397 491.532 147.361C491.338 147.232 490.951 147.748 490.693 148.458C490.112 150.395 489.144 150.136 488.305 147.813C487.917 146.715 486.949 145.617 486.11 145.294C484.109 144.52 484.109 142.842 486.11 142.326C487.853 141.938 491.275 143.488 496.826 147.232C498.763 148.523 501.409 150.136 502.636 150.782C503.862 151.427 505.09 152.202 505.283 152.525C505.477 152.783 507.801 152.072 510.447 150.846C529.491 142.131 539.274 138.048 568.159 138ZM656.664 384.859C638.266 398.738 615.478 408.486 592.045 412.489C586.493 413.392 585.331 413.78 586.686 414.167C587.978 414.49 589.076 415.716 590.561 418.298C597.662 430.886 615.607 453.609 629.422 465.293C662.216 492.923 707.534 510.806 745.04 514.098C756.983 515.131 772.67 512.548 781.579 508.094C786.808 505.447 792.553 500.929 794.619 497.895C797.782 493.118 800.157 487.823 800.235 485.694C800.881 468.061 783.854 455.998 773.961 449.866C761.368 442.059 754.789 430.693 754.789 424.367C754.789 418.75 757.435 415.071 758.855 413.134L760.211 411.327L758.791 410.422C749.947 405 740.651 399.771 731.871 395.252C725.997 392.218 719.154 388.409 716.701 386.666L712.117 383.632L710.504 385.118C707.534 387.958 702.176 389.958 697.722 389.958C693.848 389.958 693.461 389.83 691.395 387.764L689.136 385.504L686.36 387.376C682.293 390.152 675.579 393.187 673.578 393.187C668.607 393.187 661.893 388.926 660.15 384.73L659.376 382.858L656.664 384.859ZM737.101 349.999C733.227 347.74 732.452 347.546 732.452 349.031C732.452 350.967 728.515 359.941 725.48 364.783C723.867 367.429 720.703 372.206 718.443 375.369L714.441 381.115L719.089 383.18C720.053 383.625 730.685 388.734 743.457 394.87C764.048 404.764 790.199 417.33 790.358 417.33C790.617 417.329 791.828 414.528 792.102 411.262C792.747 404.226 795.135 394.671 797.911 388.022C799.202 385.054 800.234 381.345 800.235 381.019C800.235 380.872 799.186 380.447 797.468 379.754C795.423 378.929 792.43 377.723 789.132 376.144C772.864 368.333 741.04 352.389 737.101 349.999ZM724.061 377.435C722.705 375.692 723.996 374.918 727.805 375.241C730.101 375.438 785.263 403.393 789.261 405.71C791.112 406.783 787.906 408.357 787.131 408.616C782.57 409.003 777.199 408.145 772.799 405.581C770.498 403.95 752.384 393.886 740.368 387.21C734.875 384.158 730.656 381.814 729.806 381.308C727.095 379.694 724.513 377.952 724.061 377.435ZM717.347 310.427C715.733 309.33 711.989 309.975 708.696 311.911C705.92 313.461 704.952 314.494 703.661 317.205C702.822 319.077 702.112 320.884 702.111 321.336C702.111 322.692 696.237 336.701 693.913 340.897C686.941 353.485 678.871 364.072 668.349 374.401L661.506 381.179L663.442 383.568C664.604 385.052 666.412 386.343 668.091 386.924C672.674 388.603 675.385 388.28 680.033 385.698C684.746 383.051 688.232 379.63 693.59 372.529C695.591 369.882 698.367 366.074 699.852 364.137C709.341 351.42 713.925 342.575 717.347 330.245C720.445 319.013 720.445 312.493 717.347 310.427ZM724.936 334.646C722.492 334.646 720.681 336.926 717.604 344.964C713.572 355.498 691.072 384.084 691.072 384.084L692.428 385.44C693.59 386.602 694.236 386.731 696.495 386.409C700.046 385.828 706.145 383.245 708.856 380.727C710.018 379.565 712.666 376.208 714.731 373.174C723.64 359.941 726.609 353.808 728.546 344.512C729.708 338.767 728.837 337.088 727.934 335.733C727.417 334.958 726.302 334.646 724.936 334.646ZM437.048 234.446C436.596 233.994 421.427 251.416 419.36 256.975C418.907 258.195 417.681 260.332 416.713 261.623L415.035 263.778C415.035 263.778 415.556 266.796 416.132 270.588C417.492 279.545 417.165 281.958 418.714 289.447C419.746 294.739 420.78 299.321 421.038 299.646C421.232 300.033 422.071 303.003 422.91 306.295C424.718 313.59 427.752 320.82 430.463 324.37C435.692 331.084 442.599 338.702 445.827 341.285C447.762 342.832 449.439 344.122 449.571 344.124C449.636 344.124 448.216 341.155 446.408 337.54C439.113 323.016 434.853 308.555 432.852 291.9C432.4 288.22 431.69 285.122 430.915 283.83C429.366 281.248 429.366 277.891 430.979 274.728C431.819 273.049 432.27 270.919 432.27 268.595V265.044L429.172 268.272C426.138 271.435 423.234 272.726 423.233 270.79C423.233 269.37 428.011 262.527 430.528 260.397C432.529 258.718 432.787 258.137 433.433 253.102C433.884 250.068 434.918 244.71 435.757 241.16C436.66 237.61 437.177 234.576 437.048 234.446ZM402.06 219.727C403.028 218.759 403.866 218.307 403.866 218.629C403.866 219.468 400.639 222.437 399.025 223.083C397.992 223.535 398.315 223.729 400.833 224.31C402.575 224.697 403.737 225.278 403.479 225.536C402.64 226.376 398.186 225.988 397.153 224.955C395.539 223.406 395.926 222.309 398.186 221.857C399.348 221.663 401.091 220.695 402.06 219.727ZM424.008 220.695C425.041 218.629 425.493 218.242 425.686 219.081C425.815 219.727 425.493 220.953 424.912 221.792C423.492 223.987 423.621 224.246 425.815 223.923C428.01 223.6 428.397 224.31 426.525 225.343C424.976 226.118 423.427 226.118 421.426 225.279C419.876 224.698 420.005 223.407 421.619 223.407C422.136 223.407 423.233 222.179 424.008 220.695ZM441.244 155.882C447.506 154.075 454.543 153.816 456.544 155.301C457.641 156.14 457.253 156.204 452.477 156.269C442.148 156.269 430.205 161.563 410.774 174.538C400.704 181.252 389.019 190.871 389.019 192.42C389.02 192.742 390.892 192.097 393.215 191.065C398.185 188.805 403.285 187.643 405.545 188.16C407.933 188.805 407.417 189.644 404.189 190.096C402.64 190.354 397.799 192.291 393.538 194.421C389.213 196.487 385.533 198.23 385.274 198.165C378.69 197.455 387.858 186.481 404.513 175.248C420.458 164.468 431.238 158.787 441.244 155.882ZM439.049 174.086C442.212 174.022 442.923 174.216 443.116 175.119C443.31 176.023 442.922 176.152 441.18 175.894C440.018 175.7 438.339 175.829 437.436 176.152L435.821 176.733L437.307 177.185C439.243 177.83 439.114 178.928 436.726 180.477C435.628 181.187 432.529 184.221 429.883 187.255L425.041 192.743L430.269 192.937C433.174 193.066 435.499 193.388 435.499 193.711C435.499 194.357 435.239 194.421 429.172 195.648C422.265 197.003 421.168 196.422 423.169 192.614C424.46 190.031 434.854 179.509 436.08 179.509C436.467 179.509 436.79 179.251 436.79 178.993C436.79 178.67 435.111 178.153 433.11 177.83C425.88 176.668 429.818 174.215 439.049 174.086ZM469.455 165.759C469.971 165.243 476.297 165.952 477.201 166.662C477.588 166.985 478.169 166.921 478.557 166.534C479.46 165.63 480.687 166.34 480.687 167.76C480.687 168.535 480.494 168.599 479.913 168.018C479.397 167.501 478.944 167.502 478.363 167.953C477.847 168.405 477.459 168.405 477.137 167.889C476.943 167.566 475.717 167.244 474.426 167.243C473.235 167.243 472.671 167.243 472.556 167.47C472.453 167.674 472.711 168.06 473.199 168.792C474.229 170.401 474.168 170.407 471.801 170.599L471.778 170.6C469.906 170.729 469.455 171.053 469.584 171.956C469.591 172.002 469.597 172.045 469.603 172.087C469.676 172.565 469.717 172.839 469.61 172.922C469.466 173.035 469.051 172.799 468.075 172.245C468.02 172.214 467.963 172.183 467.905 172.15C466.679 171.504 466.55 171.182 467.26 170.665C467.712 170.278 468.938 169.697 469.906 169.503L471.714 169.051L470.358 167.631C469.648 166.792 469.261 166.017 469.455 165.759ZM446.731 148.845C445.505 145.617 452.025 144.391 464.936 145.294C475.716 146.069 481.333 147.167 485.723 149.426C488.24 150.782 488.498 151.04 487.143 151.04C486.239 151.04 483.785 150.652 481.655 150.136C479.525 149.555 473.456 148.974 468.099 148.716L458.416 148.328L460.224 150.136C461.192 151.104 461.966 152.59 461.966 153.429C461.966 155.301 461.45 155.301 459.578 153.429C457.835 151.686 452.67 149.814 449.507 149.814C447.958 149.814 446.925 149.491 446.731 148.845Z" fill="#00160A"/>
<path d="M871.181 448.591C879.212 426.709 877.997 422.047 876.604 421.591C876.604 421.591 873.537 423.334 872.181 427.013C869.663 433.921 861.046 451.996 857.818 455.224C854.009 459.033 854.009 459.033 850.136 459.033C846.263 459.033 835.092 453.199 833.571 447.45C831.138 438.25 841.615 406.291 841.873 404.484L840.13 403.257C838.968 404.354 823.854 450.189 803.979 438.246C801.704 436.878 796.878 430.435 796.491 427.013C794.34 417.072 804.21 382.309 805.888 375.168C807.39 368.777 815.212 362.845 824.831 362.845C839.614 362.845 837.628 375.768 844.25 380.321C847.184 382.339 852.006 378.681 853.493 378.403C861.821 376.854 865.012 378.658 871.117 383.503C875.829 387.243 879.316 394.645 883.153 397.253C885.285 398.702 887.547 396.722 888.288 396.35C891.325 394.825 897.842 395.962 899.65 397.253C902.3 398.409 908.793 404.651 909.819 408.281C914.469 424.735 899.787 461.213 894.245 468.056C885.07 479.383 863.15 470.473 871.181 448.591Z" fill="white"/>
<path fill-rule="evenodd" clip-rule="evenodd" d="M500.054 388.632C517.742 399.8 535.98 407.095 556.767 409.096C573.164 410.646 595.273 408.515 611.153 403.351C624.516 399.026 642.591 387.044 654.663 376.909C678.097 357.284 692.88 326.63 699.335 294.094C700.239 289.511 701.617 277.99 701.553 266.563C701.553 253.265 695.7 216.924 677.968 195.971C641.394 152.753 581.274 133.285 530.748 149.919C512.522 155.92 493.116 166.792 478.462 180.994C459.999 199.005 446.378 223.536 440.955 248.583C435.274 275.051 442.664 306.683 455.511 332.634C465.775 353.291 482.688 377.593 500.054 388.632ZM672.416 310.621C660.28 347.094 628.648 374.336 588.882 382.599C582.813 383.826 578.617 384.278 570.096 384.407C564.092 384.601 558.089 384.536 556.862 384.407C529.039 381.05 507.865 370.786 488.369 351.29C479.848 342.704 476.233 338.056 470.939 328.89C462.612 314.365 458.157 299.517 456.802 281.635C452.154 220.372 495.987 169.309 557.701 164.016C581.91 161.95 608.765 169.374 629.164 183.834C636.717 189.192 650.403 202.749 654.663 209.075C656.406 211.593 673.32 236.318 676.289 250.52C680.098 268.982 678.613 292.093 672.416 310.621Z" fill="white"/>
<path fill-rule="evenodd" clip-rule="evenodd" d="M701.576 266.563C701.576 309.893 681.08 357.265 654.628 377.496C642.008 387.148 625.515 398.835 611.153 403.351C590.105 409.968 556.767 409.096 556.767 409.096C556.767 409.096 590.779 404.55 603.383 399.477C639.526 384.932 659.256 362.603 671.44 341.18C695.489 298.891 701.576 265.511 701.576 266.563Z" fill="#E7EAEE"/>
<path fill-rule="evenodd" clip-rule="evenodd" d="M557.508 376.66C540.272 374.465 523.165 368.333 509.35 359.23C501.151 353.872 488.757 341.284 482.753 332.311C474.167 319.4 468.486 305.585 465.71 290.737C463.709 279.957 463.774 263.366 465.775 253.747C467.841 243.935 470.488 236.447 475.2 226.957C480.687 215.983 486.497 207.913 495.212 199.198C510.06 184.351 527.296 174.926 547.825 170.407C554.474 168.987 578.553 167.825 579.392 168.922C579.586 169.245 580.877 170.084 582.232 170.794C583.588 171.569 587.203 174.28 590.173 176.927C594.627 180.8 596.628 183.253 600.502 189.321C603.148 193.453 605.279 197.197 605.279 197.52C605.279 198.23 607.344 199.521 608.506 199.521C610.12 199.521 611.218 194.679 611.54 186.158C611.734 181.446 612.121 177.572 612.38 177.572C613.283 177.572 623.225 183.06 627.873 186.158C636.975 192.226 646.077 200.748 652.791 209.656C655.825 213.659 656.277 214.692 656.277 217.145C656.277 219.404 656.923 221.147 658.924 224.633C663.959 233.413 667.897 244.451 670.286 256.652C671.835 264.851 671.835 280.344 670.221 288.93C665.831 312.557 652.791 336.055 635.813 350.967C621.417 363.556 606.118 371.302 588.042 375.111C581.845 376.467 563.253 377.37 557.508 376.66ZM511.351 332.505C511.932 331.859 512.319 330.891 512.126 330.439C512.067 330.303 511.259 329.923 510.076 329.367C507.318 328.07 502.523 325.816 500.445 323.467C492.182 314.042 489.148 307.005 487.276 292.48C485.468 278.343 486.986 268.785 490.245 253.425C491.835 245.931 496.06 239.742 498.688 235.891C500.475 233.273 501.525 231.736 500.506 231.605C497.988 231.218 497.601 231.411 494.954 233.929C489.273 239.352 486.691 243.677 483.98 252.004C479.783 265.045 478.973 300.285 487.276 316.172C495.578 332.059 509.866 334.183 511.351 332.505ZM603.148 278.278C602.052 288.307 597.403 302.809 591.98 309.136C589.463 312.105 580.221 317.205 572.42 316.172C564.885 315.175 558.993 311.653 553.957 304.1C549.632 297.58 547.398 289.666 545.888 279.699C543.28 262.487 554.667 242.45 559.574 237.48C564.544 232.38 568.095 230.572 572.614 230.508C577.004 230.508 579.844 231.476 584.298 234.639C592.432 240.32 605.279 258.791 603.148 278.278ZM516.128 224.891C517.419 223.406 517.613 222.696 517.225 219.921C516.967 217.338 516.451 216.305 515.095 215.208C512.707 213.271 509.737 213.271 507.542 215.337C505.993 216.822 505.799 217.338 505.993 220.889C506.187 224.698 506.316 224.956 508.446 226.118C511.286 227.667 514.062 227.215 516.128 224.891ZM556.41 185.061C544.791 193.388 539.755 196.81 534.526 200.038C530.395 202.62 529.104 202.684 529.104 200.36C529.104 199.134 530.007 197.778 532.331 195.648L535.559 192.678L529.297 191.839C522.261 190.935 515.418 188.999 513.933 187.514C511.48 184.996 513.61 184.415 520.582 185.706C523.681 186.223 529.685 186.868 533.945 186.997L541.692 187.32L547.308 183.253C559.638 174.345 572.42 169.309 578.553 170.859C582.362 171.762 581.91 172.795 577.585 173.312C572.614 173.893 569.58 175.571 556.41 185.061Z" fill="white"/>
<path d="M573.001 307.328C573.001 307.005 573.388 306.683 573.905 306.683C574.421 306.683 575.067 307.005 575.261 307.328C575.454 307.715 575.067 307.974 574.357 307.974C573.582 307.974 573.001 307.715 573.001 307.328Z" fill="white"/>
<path d="M576.874 306.747C576.874 306.037 578.488 305.391 580.296 305.391C581.716 305.456 581.716 305.456 580.489 306.36C579.069 307.457 576.874 307.651 576.874 306.747Z" fill="white"/>
<path d="M566.868 305.069C566.675 304.552 566.416 303.649 566.223 303.132C566.029 302.487 566.352 302.164 567.191 302.164C567.901 302.164 568.482 302.551 568.482 303.068C568.482 303.584 568.676 304.423 568.87 305.004C569.128 305.714 568.934 306.037 568.224 306.037C567.643 306.037 566.997 305.585 566.868 305.069Z" fill="white"/>
<path d="M570.29 303.455C569.967 301.518 570.677 300.873 573.001 300.873C573.711 300.873 574.292 301.518 574.55 302.616C575.067 304.488 574.228 305.391 571.968 305.391C570.935 305.391 570.483 304.94 570.29 303.455Z" fill="white"/>
<path d="M563.705 303.778C562.479 302.809 562.479 302.809 563.834 302.809C564.673 302.809 565.254 303.197 565.254 303.778C565.254 304.94 565.254 304.94 563.705 303.778Z" fill="white"/>
<path d="M576.681 303.713C575.841 302.874 576.229 300.356 577.262 299.969C579.134 299.259 579.973 299.581 580.36 301.26C580.619 302.228 580.748 303.067 580.619 303.132C580.102 303.713 577.068 304.1 576.681 303.713Z" fill="white"/>
<path d="M582.426 302.357C582.232 302.164 582.039 301.324 582.039 300.55C582.039 299.452 582.555 299 584.105 298.678C585.46 298.419 586.299 298.549 586.687 299.065C587.332 300.098 587.332 301.389 586.751 301.712C585.589 302.357 582.878 302.745 582.426 302.357Z" fill="white"/>
<path d="M560.736 300.356C560.736 299.581 561.317 298.936 562.156 298.742C563.834 298.29 563.77 298.226 564.092 299.904C564.222 300.873 563.899 301.26 562.543 301.389C561.123 301.583 560.736 301.324 560.736 300.356Z" fill="white"/>
<path d="M565.642 300.421C564.738 299.452 565.319 297.645 566.546 297.645C567.385 297.645 567.837 298.097 567.837 298.871C567.837 300.098 566.352 301.131 565.642 300.421Z" fill="white"/>
<path d="M569.515 298.484C568.999 297.258 570.096 296.354 572.226 296.354C573.195 296.354 573.647 296.741 573.647 297.58C573.647 298.29 573.066 298.936 572.226 299.194C570.096 299.711 569.967 299.711 569.515 298.484Z" fill="white"/>
<path d="M588.171 298.29C588.365 297.968 588.688 297.645 588.882 297.645C589.075 297.645 589.011 297.968 588.817 298.29C588.623 298.678 588.301 298.936 588.107 298.936C587.913 298.936 587.978 298.678 588.171 298.29Z" fill="white"/>
<path d="M575.325 297.193C574.809 295.902 575.454 295.256 577.52 294.934C578.682 294.804 579.198 295.063 579.327 295.966C579.779 298.097 576.1 299.259 575.325 297.193Z" fill="white"/>
<path d="M559.832 296.095C559.251 293.965 559.38 293.771 561.058 293.771C561.962 293.771 562.672 294.03 562.672 294.352C562.672 294.675 562.866 295.385 563.06 295.902C563.253 296.547 562.866 296.935 561.768 297.128C560.542 297.387 560.09 297.128 559.832 296.095Z" fill="white"/>
<path d="M581.393 295.385C581.393 294.223 581.845 293.707 583.072 293.384C584.879 292.932 585.912 293.836 585.912 295.902C585.912 296.741 585.396 296.999 583.653 296.999C581.651 296.999 581.393 296.806 581.393 295.385Z" fill="white"/>
<path d="M557.895 295.385C557.702 294.869 557.831 294.417 558.153 294.417C558.541 294.417 558.799 294.869 558.799 295.385C558.799 295.902 558.67 296.354 558.541 296.354C558.412 296.354 558.153 295.902 557.895 295.385Z" fill="white"/>
<path d="M564.415 295.902C563.511 295.063 564.028 293.255 565.19 292.932C565.9 292.739 566.61 292.803 566.804 292.997C567.578 293.707 567.127 295.579 566.158 295.966C564.932 296.418 564.932 296.418 564.415 295.902Z" fill="white"/>
<path d="M587.461 295.45C586.751 293.578 587.526 292.158 589.334 291.964C590.689 291.77 591.077 292.028 591.077 293.061C591.077 295.192 590.366 296.354 589.075 296.354C588.365 296.354 587.655 295.966 587.461 295.45Z" fill="white"/>
<path d="M568.934 294.611C568.159 293.901 568.418 292.609 569.515 292.222C570.742 291.77 573.324 293.061 572.614 293.771C571.71 294.546 569.386 295.127 568.934 294.611Z" fill="white"/>
<path d="M574.55 292.997C573.969 292.093 576.035 290.544 577.714 290.544C578.488 290.544 578.811 290.931 578.682 291.641C578.424 292.932 575.131 293.965 574.55 292.997Z" fill="white"/>
<path d="M556.862 292.545C556.862 292.222 556.669 291.512 556.475 290.931C556.281 290.35 556.346 289.898 556.733 289.898C557.572 289.898 558.218 292.351 557.443 292.868C557.12 293.061 556.862 292.932 556.862 292.545Z" fill="white"/>
<path d="M558.605 291.06C558.218 289.64 558.993 288.607 560.477 288.607C561.317 288.607 562.156 291.125 561.639 291.964C560.929 293.061 558.928 292.416 558.605 291.06Z" fill="white"/>
<path d="M563.124 291.383C562.156 290.415 562.737 288.091 564.028 287.768C564.996 287.51 565.513 287.833 566.029 288.995C566.416 289.834 566.61 290.673 566.481 290.802C565.835 291.383 563.511 291.835 563.124 291.383Z" fill="white"/>
<path d="M580.554 291.383C579.715 290.544 580.102 290.027 582.039 289.317C583.653 288.801 584.105 288.865 584.427 289.64C585.008 291.189 581.781 292.674 580.554 291.383Z" fill="white"/>
<path d="M586.235 289.898C585.589 288.865 586.493 287.962 588.172 287.962C590.173 287.962 590.754 289.64 588.946 290.157C587.01 290.673 586.687 290.608 586.235 289.898Z" fill="white"/>
<path d="M591.722 288.349C591.722 287.381 592.884 286.348 593.4 286.864C593.852 287.316 592.949 289.253 592.303 289.253C591.98 289.253 591.722 288.865 591.722 288.349Z" fill="white"/>
<path d="M556.023 287.51C555.765 287.316 555.571 286.477 555.636 285.767C555.636 284.54 555.7 284.54 556.281 285.96C556.927 287.51 556.798 288.284 556.023 287.51Z" fill="white"/>
<path d="M557.25 286.541C556.669 284.282 556.733 284.088 558.412 284.088C560.284 284.088 561.446 286.477 560.025 287.381C558.541 288.284 557.701 288.026 557.25 286.541Z" fill="white"/>
<path d="M579.457 287.832C579.457 287.639 579.779 286.606 580.167 285.444C581.07 282.862 583.072 282.732 583.524 285.25C583.717 286.218 583.782 287.058 583.717 287.122C583.394 287.51 579.457 288.091 579.457 287.832Z" fill="white"/>
<path d="M561.833 286.219C561.575 286.025 561.381 285.25 561.381 284.54C561.381 283.507 561.575 283.443 562.349 284.088C562.866 284.54 563.318 285.315 563.318 285.767C563.318 286.735 562.543 286.993 561.833 286.219Z" fill="white"/>
<path d="M585.073 284.927C584.685 282.926 585.525 282.022 587.526 282.281C588.494 282.41 588.817 282.991 588.817 284.411C588.817 286.025 588.559 286.412 587.139 286.541C585.718 286.735 585.396 286.412 585.073 284.927Z" fill="white"/>
<path d="M591.399 285.186C590.56 282.604 590.818 281.829 592.561 281.635C594.111 281.442 594.304 281.635 594.304 283.314C594.304 284.734 593.917 285.315 592.949 285.573C592.238 285.767 591.528 285.573 591.399 285.186Z" fill="white"/>
<path d="M555.055 281.506C555.055 280.28 555.184 279.763 555.377 280.409C555.507 280.99 555.507 282.023 555.377 282.668C555.184 283.249 555.055 282.733 555.055 281.506Z" fill="white"/>
<path d="M556.669 282.345C555.829 281.571 556.217 279.053 557.25 278.666C558.734 278.085 559.444 278.795 559.444 280.925C559.444 282.281 559.122 282.797 558.282 282.797C557.637 282.797 556.862 282.603 556.669 282.345Z" fill="white"/>
<path d="M560.542 280.602C560.284 279.634 560.155 278.601 560.413 278.408C561.058 277.762 561.446 278.795 561.252 280.667L561.058 282.474L560.542 280.602Z" fill="white"/>
<path d="M581.393 280.15C581.393 279.44 581.716 279.053 582.039 279.247C582.426 279.44 582.684 280.086 582.684 280.602C582.684 281.119 582.426 281.506 582.039 281.506C581.716 281.506 581.393 280.925 581.393 280.15Z" fill="white"/>
<path d="M584.298 280.99C583.394 280.021 584.105 278.278 585.589 277.891C587.461 277.439 587.526 277.439 588.107 279.311C588.494 280.473 588.236 280.731 586.558 280.99C585.525 281.183 584.492 281.119 584.298 280.99Z" fill="white"/>
<path d="M590.237 279.763C589.527 279.118 589.721 276.987 590.431 276.987C590.818 276.987 591.077 276.729 591.077 276.342C591.077 276.019 590.689 275.696 590.173 275.696C589.075 275.696 588.172 272.533 589.075 271.629C590.237 270.467 591.528 271.694 592.303 274.857C592.755 276.535 593.207 278.472 593.401 279.118C593.659 279.957 593.401 280.215 592.174 280.215C591.335 280.215 590.431 280.021 590.237 279.763Z" fill="white"/>
<path d="M593.723 276.342C593.271 274.405 592.109 270.532 591.27 267.691C589.979 263.56 589.85 262.527 590.56 262.075C591.012 261.752 591.593 261.494 591.787 261.494C592.497 261.494 595.079 274.728 594.821 277.31L594.627 279.892L593.723 276.342Z" fill="white"/>
<path d="M554.409 276.019C554.409 274.986 554.538 274.599 554.732 275.244C554.861 275.825 554.861 276.729 554.732 277.181C554.538 277.568 554.409 277.116 554.409 276.019Z" fill="white"/>
<path d="M555.7 275.89C555.959 273.63 557.831 273.114 558.347 275.18C558.799 276.858 558.928 276.664 556.991 277.31C555.636 277.697 555.507 277.568 555.7 275.89Z" fill="white"/>
<path d="M582.943 275.309C582.426 273.437 583.524 272.339 585.589 272.597C587.139 272.791 587.72 275.567 586.428 276.406C584.815 277.439 583.33 276.987 582.943 275.309Z" fill="white"/>
<path d="M559.444 274.792C559.444 273.695 559.767 273.114 560.477 273.114C561.123 273.114 561.381 273.566 561.252 274.534C560.929 276.6 559.444 276.794 559.444 274.792Z" fill="white"/>
<path d="M553.699 272.081C553.699 271.371 553.893 271.177 554.086 271.694C554.28 272.146 554.216 272.727 554.022 272.92C553.828 273.178 553.635 272.791 553.699 272.081Z" fill="white"/>
<path d="M554.926 271.887C554.926 270.919 555.313 270.532 556.281 270.532C557.185 270.532 557.508 270.855 557.379 271.629C557.056 273.308 554.926 273.501 554.926 271.887Z" fill="white"/>
<path d="M558.476 271.306C558.024 270.144 558.024 270.144 559.961 269.628C561.123 269.241 561.381 269.434 561.381 270.403C561.381 271.952 559.057 272.727 558.476 271.306Z" fill="white"/>
<path d="M581.845 270.403C581.393 268.789 582.232 267.949 584.492 267.949C585.589 267.949 585.912 268.337 585.912 269.563C585.912 270.532 585.525 271.177 585.008 271.177C584.492 271.177 583.653 271.371 583.136 271.565C582.555 271.758 582.103 271.371 581.845 270.403Z" fill="white"/>
<path d="M587.461 268.918C586.945 267.627 587.72 266.658 589.204 266.658C590.108 266.658 590.431 267.11 590.431 268.272C590.431 269.434 590.108 269.886 589.14 269.886C588.43 269.886 587.655 269.434 587.461 268.918Z" fill="white"/>
<path d="M554.28 268.014C554.28 266.658 555.765 265.109 556.41 265.819C556.669 266.013 556.862 266.917 556.862 267.756C556.862 268.789 556.475 269.241 555.571 269.241C554.732 269.241 554.28 268.789 554.28 268.014Z" fill="white"/>
<path d="M557.831 267.239C557.314 265.625 557.895 264.915 560.09 264.593C562.091 264.334 562.737 266.465 560.994 267.756C559.315 268.982 558.282 268.789 557.831 267.239Z" fill="white"/>
<path d="M581.2 266.852C580.748 266.465 580.554 264.076 580.941 264.076C581.006 264.076 581.974 263.818 583.136 263.495C585.073 262.914 585.202 262.979 585.137 264.722C585.073 266.013 584.686 266.658 583.717 266.917C581.974 267.369 581.716 267.369 581.2 266.852Z" fill="white"/>
<path d="M578.811 265.367C578.811 264.915 579.005 264.722 579.263 264.915C579.457 265.174 579.457 265.561 579.263 265.819C579.005 266.013 578.811 265.819 578.811 265.367Z" fill="white"/>
<path d="M586.041 264.334C586.235 263.237 588.236 261.623 588.688 262.14C588.882 262.333 589.204 263.108 589.398 263.947C589.85 265.238 589.656 265.367 587.849 265.367C586.299 265.367 585.848 265.109 586.041 264.334Z" fill="white"/>
<path d="M554.926 264.27C554.926 263.947 555.248 263.301 555.571 262.785C556.088 262.01 556.217 262.075 556.217 263.301C556.217 264.076 555.959 264.722 555.571 264.722C555.248 264.722 554.926 264.528 554.926 264.27Z" fill="white"/>
<path d="M556.862 262.85C556.862 261.042 558.218 260.461 559.251 261.817C559.896 262.785 559.896 263.108 559.251 263.56C557.895 264.399 556.862 264.141 556.862 262.85Z" fill="white"/>
<path d="M576.487 262.01C575.325 260.719 575.325 260.655 576.422 261.042C577.068 261.3 577.907 261.494 578.23 261.494C578.553 261.494 578.811 261.946 578.811 262.462C578.811 263.818 577.907 263.689 576.487 262.01Z" fill="white"/>
<path d="M562.608 261.946C559.832 259.816 559.444 255.039 562.027 255.039C563.77 255.039 565.384 257.75 565.125 260.268C564.932 262.592 564.157 263.108 562.608 261.946Z" fill="white"/>
<path d="M580.296 262.333C580.554 262.14 580.941 262.14 581.199 262.333C581.393 262.591 581.199 262.785 580.748 262.785C580.296 262.785 580.102 262.591 580.296 262.333Z" fill="white"/>
<path d="M590.044 259.815C590.237 259.234 590.431 258.653 590.431 258.524C590.431 258.395 590.754 258.266 591.077 258.266C591.464 258.266 591.722 258.847 591.722 259.557C591.722 260.332 591.27 260.848 590.689 260.848C589.979 260.848 589.785 260.526 590.044 259.815Z" fill="white"/>
<path d="M556.217 259.622C556.217 258.137 557.572 255.684 558.347 255.684C559.703 255.684 558.734 259.816 557.314 260.074C556.733 260.203 556.217 260.009 556.217 259.622Z" fill="white"/>
<path d="M570.742 258.912L568.805 258.46L570.548 258.008C572.355 257.492 573.647 257.879 573.647 258.976C573.647 259.622 573.582 259.622 570.742 258.912Z" fill="white"/>
<path d="M568.482 255.813C568.482 253.166 569.967 252.779 571.323 255.103C572.226 256.652 572.291 256.975 571.452 256.975C570.935 256.975 570.096 257.169 569.515 257.362C568.74 257.685 568.482 257.298 568.482 255.813Z" fill="white"/>
<path d="M579.715 256.717C576.81 255.426 574.938 252.004 574.938 247.937C574.938 245.033 575.196 244.322 576.939 242.709C578.036 241.676 579.134 240.836 579.457 240.836C580.877 240.836 586.106 245.807 587.849 248.906L589.85 252.456L587.72 254.716C585.267 257.298 582.555 258.008 579.715 256.717Z" fill="white"/>
<path d="M566.223 255.038C566.029 254.716 566.158 254.393 566.481 254.393C566.868 254.393 567.191 254.716 567.191 255.038C567.191 255.426 567.062 255.684 566.933 255.684C566.739 255.684 566.416 255.426 566.223 255.038Z" fill="white"/>
<path d="M557.766 254.006C557.96 253.425 558.153 252.844 558.153 252.715C558.153 252.585 558.734 252.456 559.444 252.456C561.058 252.456 561.123 253.489 559.509 254.393C557.766 255.297 557.314 255.232 557.766 254.006Z" fill="white"/>
<path d="M562.866 253.231C561.381 253.037 560.929 252.198 561.898 251.617C562.156 251.423 563.318 251.101 564.48 250.842C566.223 250.455 566.546 250.584 566.546 251.682C566.546 253.037 565.19 253.618 562.866 253.231Z" fill="white"/>
<path d="M567.837 251.036C567.837 250.261 567.901 249.81 568.03 249.939C568.095 250.068 568.611 250.713 569.063 251.359C569.838 252.263 569.773 252.456 568.87 252.456C568.224 252.456 567.837 251.94 567.837 251.036Z" fill="white"/>
<path d="M558.799 250.584C558.799 250.197 559.122 249.745 559.445 249.551C559.832 249.358 560.09 249.616 560.09 250.132C560.09 250.713 559.832 251.165 559.445 251.165C559.122 251.165 558.799 250.907 558.799 250.584Z" fill="white"/>
<path d="M561.187 249.616C560.671 248.325 565.254 246.905 566.029 248.131C566.61 249.164 566.029 249.616 563.576 250.132C562.091 250.455 561.446 250.326 561.187 249.616Z" fill="white"/>
<path d="M567.256 247.55C567.256 246.84 567.449 246.646 567.643 247.163C567.837 247.615 567.772 248.196 567.578 248.389C567.385 248.647 567.191 248.26 567.256 247.55Z" fill="white"/>
<path d="M561.768 246.517C562.543 245.097 564.803 242.773 565.384 242.773C566.029 242.773 566.094 245.807 565.448 246.194C565.125 246.323 564.092 246.646 563.124 246.904C561.704 247.227 561.381 247.163 561.768 246.517Z" fill="white"/>
<path d="M566.933 245.032C566.223 243.096 566.546 242.257 568.095 241.998C569.709 241.676 569.709 241.676 568.676 243.677C567.385 246.259 567.449 246.259 566.933 245.032Z" fill="white"/>
<path d="M566.546 241.159C566.546 241.03 567.837 240.126 569.451 239.223C571.387 238.061 572.743 237.673 573.711 237.931C574.873 238.319 574.55 238.577 571.71 239.933C568.547 241.353 566.546 241.869 566.546 241.159Z" fill="white"/>
<path d="M602.374 183.963C600.631 181.446 596.951 177.379 594.304 174.925C591.658 172.472 589.915 170.471 590.431 170.471C591.851 170.471 602.696 173.441 605.408 174.603C607.667 175.571 607.732 175.7 607.151 177.701C606.828 178.863 606.57 181.768 606.57 184.157C606.57 186.61 606.376 188.547 606.118 188.547C605.795 188.547 604.181 186.481 602.374 183.963Z" fill="white"/>
<path d="M471.004 379.501C468.357 378.145 467.776 377.37 464.419 370.721C459.578 361.296 459.449 359.101 464.032 364.459C465.84 366.59 470.036 370.979 473.328 374.207C478.944 379.63 479.202 380.017 477.33 379.759C475.975 379.565 475.458 379.694 475.781 380.211C476.556 381.373 474.103 381.05 471.004 379.501Z" fill="white"/>
<path fill-rule="evenodd" clip-rule="evenodd" d="M579.191 497.115C578.655 495.842 579.253 494.376 580.525 493.84L581.916 493.25C595.438 487.464 603.2 483.989 608.474 478.47C613.748 472.951 614.379 464.845 615.369 459.912C615.641 458.558 618.707 460.936 620.06 461.208C621.414 461.48 622.291 462.797 622.019 464.151C620.828 470.082 617.62 475.736 612.455 481.103C607.308 486.452 597.342 492.185 582.465 498.449C581.193 498.984 579.727 498.387 579.191 497.115Z" fill="#00160A"/>
<path fill-rule="evenodd" clip-rule="evenodd" d="M640.341 239.54C641.528 238.833 643.062 239.223 643.768 240.409C650.84 252.288 654.628 265.868 654.628 279.996C654.628 322.798 619.93 357.496 577.128 357.496C565.754 357.496 554.723 355.043 544.622 350.369C543.368 349.789 538.635 345.173 543.402 347.05C548.17 348.928 566.616 353.142 577.261 353.142C617.301 353.142 645.628 320.037 645.628 279.996C645.628 266.774 640.341 255.039 639.472 242.967C639.371 241.567 639.155 240.246 640.341 239.54Z" fill="#00160A"/>
<path fill-rule="evenodd" clip-rule="evenodd" d="M392.747 428.751C393.63 427.69 395.207 425.547 396.268 426.43C400.62 430.055 405.264 434.255 410.232 435.066C415.402 435.91 421.535 435.91 428.623 435.052C429.994 434.886 431.239 435.862 431.405 437.233C431.571 438.604 430.594 439.849 429.224 440.015C421.696 440.927 415.1 440.927 409.427 440.001C403.552 439.042 398.088 436.454 393.068 432.272C392.007 431.388 391.863 429.812 392.747 428.751Z" fill="#00160A"/>
<path d="M445.827 341.284C442.6 338.702 435.692 331.084 430.463 324.371C427.752 320.82 424.718 313.59 422.91 306.295C422.071 303.003 421.232 300.033 421.038 299.646C420.78 299.323 419.747 294.74 418.714 289.446C417.165 281.958 417.493 279.545 416.132 270.588C415.556 266.796 415.035 263.778 415.035 263.778L416.713 261.623C417.681 260.332 418.906 258.196 419.36 256.975C421.426 251.417 436.596 233.994 437.048 234.445C437.177 234.575 436.661 237.609 435.757 241.159C434.918 244.71 433.885 250.068 433.433 253.102C432.787 258.137 432.529 258.718 430.528 260.397C428.01 262.527 423.233 269.37 423.233 270.79C423.233 272.727 426.138 271.435 429.172 268.272L432.271 265.045V268.595C432.271 270.919 431.819 273.049 430.98 274.728C429.366 277.891 429.366 281.248 430.915 283.83C431.69 285.121 432.4 288.22 432.852 291.899C434.853 308.555 439.114 323.015 446.408 337.54C448.216 341.155 449.636 344.125 449.572 344.125C449.443 344.125 447.764 342.833 445.827 341.284Z" fill="white"/>
<path fill-rule="evenodd" clip-rule="evenodd" d="M714.441 381.115L719.089 383.18C720.053 383.625 730.685 388.734 743.457 394.871C764.048 404.765 790.199 417.33 790.358 417.33C790.616 417.33 791.828 414.529 792.101 411.262C792.747 404.225 795.135 394.671 797.911 388.022C799.202 385.053 800.235 381.341 800.235 381.018C800.235 380.871 799.186 380.448 797.468 379.755C795.422 378.93 792.429 377.723 789.132 376.144C772.864 368.333 741.038 352.388 737.1 349.999C733.227 347.74 732.452 347.546 732.452 349.031C732.452 350.967 728.514 359.941 725.48 364.782C723.866 367.429 720.703 372.206 718.444 375.369L714.441 381.115ZM789.261 405.71C791.112 406.783 787.905 408.357 787.13 408.615C782.569 409.003 777.199 408.145 772.799 405.581C770.499 403.95 752.384 393.886 740.368 387.21C734.875 384.158 730.656 381.815 729.806 381.308C727.094 379.694 724.512 377.952 724.06 377.435C722.704 375.692 723.996 374.917 727.804 375.24C730.094 375.434 785.262 403.393 789.261 405.71Z" fill="white"/>
<path d="M668.091 386.925C666.412 386.344 664.605 385.053 663.443 383.568L661.506 381.179L668.349 374.401C678.871 364.072 686.618 352.784 693.59 340.196C695.914 336 702.821 319.077 703.661 317.205C704.952 314.494 705.92 313.461 708.696 311.912C711.988 309.975 715.732 309.329 717.346 310.427C720.445 312.493 720.445 319.013 717.346 330.245C713.925 342.575 709.341 351.419 699.852 364.137C698.367 366.073 695.591 369.882 693.59 372.529C688.232 379.63 684.746 383.051 680.033 385.698C675.385 388.28 672.674 388.603 668.091 386.925Z" fill="white"/>
<path d="M692.428 385.44L691.072 384.084C691.072 384.084 713.573 355.497 717.605 344.964C720.681 336.925 722.492 334.646 724.935 334.646C726.301 334.646 727.417 334.958 727.933 335.733C728.837 337.088 729.708 338.767 728.546 344.512C726.609 353.808 723.64 359.941 714.731 373.174C712.665 376.209 710.019 379.565 708.857 380.727C706.145 383.245 700.046 385.827 696.495 386.408C694.236 386.731 693.59 386.602 692.428 385.44Z" fill="white"/>
<path fill-rule="evenodd" clip-rule="evenodd" d="M730.223 355.547C731.525 352.569 732.452 349.971 732.452 349.031C732.452 347.546 733.227 347.74 737.1 349.999C741.038 352.388 772.864 368.333 789.132 376.144C795.2 379.049 800.235 380.696 800.235 381.018C800.235 381.341 728.842 358.705 730.223 355.547Z" fill="#E7EAEE"/>
<path fill-rule="evenodd" clip-rule="evenodd" d="M509.35 359.231C501.151 353.872 488.757 341.284 482.753 332.311C474.167 319.4 468.486 305.585 465.71 290.738C463.709 279.957 463.774 263.366 465.775 253.747C467.841 243.935 470.488 236.447 475.2 226.957C480.687 215.983 486.497 207.913 495.212 199.198C503.758 190.652 465.775 225.994 475.2 289.229C482.753 342.219 515.213 363.094 509.35 359.231Z" fill="#E7EAEE"/>
</svg>
