<svg width="1247" height="762" viewBox="0 0 1247 762" fill="none" xmlns="http://www.w3.org/2000/svg">
<rect width="1247" height="762" fill="white"/>
<rect width="731" height="657" transform="translate(258 53)" fill="white"/>
<path fill-rule="evenodd" clip-rule="evenodd" d="M710.135 188.412C711.28 150.205 657.478 84.9804 569.337 96.3447C472.836 108.787 402.815 208.445 416.764 319.831L417.295 324.109C425.858 393.68 428.72 448.484 413.924 525.653C402.862 583.35 481.525 711.087 655.532 690.88C829.539 670.673 925.118 483.143 843.003 394.658C733.327 276.47 707.63 272.035 710.135 188.412Z" fill="#D9F8FE"/>
<path fill-rule="evenodd" clip-rule="evenodd" d="M602.467 299.805C599.482 292.9 593.827 287.261 588.932 281.302C575.843 265.367 567.726 246.169 565.738 226.443C564.677 215.913 568.707 164.516 590.02 152.458C579.498 149.546 568.707 146.51 560.076 140.367C551.446 134.223 545.338 124.179 547.66 114.507C551.175 99.8671 572.331 93.582 588.111 98.3938C603.891 103.206 615.242 115.379 625.745 127.006C635.788 126.246 638.281 112.946 647.454 109.193C653.641 106.661 660.834 109.257 666.832 112.133C684.287 120.501 700.636 131.977 709.866 147.704C719.096 163.432 719.895 183.961 708.135 198.26C712.419 193.852 721.296 199.334 720.789 205.169C720.281 211.004 714.547 215.238 709.072 218.406C703.596 221.574 697.479 224.859 695.315 230.379C689.869 244.275 681.217 257.149 670.067 267.947C663.254 274.545 655.433 280.481 650.38 288.253C645.327 296.025 643.639 306.469 649.533 313.746C657.37 306.249 670.878 304.141 681.069 308.825C691.259 313.509 697.266 324.585 695.091 334.685C709.29 335.78 722.048 345.891 725.033 358.415C753.824 384.499 777.34 415.271 794.094 448.785C804.729 470.059 812.627 492.338 820.5 514.56C823.581 523.255 826.699 532.364 824.983 541.358C821.499 559.622 799.453 570.382 778.976 572.544C753.481 575.236 726.915 568.552 706.68 554.354C695.871 584.564 685.082 617.562 697.369 647.311C700.001 653.682 694.739 660.918 687.865 663.749C680.991 666.58 673.079 666.166 665.536 665.696C623.258 663.062 580.98 660.429 538.703 657.795C529.843 657.243 517.73 652.558 520.866 645.09C527.869 628.414 529.87 610.064 526.603 592.483C524.11 604.324 519.788 615.853 513.799 626.635C513.799 626.635 492.696 665.696 471.65 645.65C459.655 623.867 459.138 598.359 462.679 574.263C466.219 550.167 473.539 526.589 476.399 502.42C479.185 478.875 477.704 455.05 480.429 431.499C483.154 407.948 490.685 383.83 508.57 366.445C522.721 352.69 536.872 338.935 551.023 325.179C554.833 321.476 558.849 317.646 564.118 315.908C569.386 314.171 576.274 315.276 578.983 319.693C582.323 315.958 586.232 311.933 591.534 311.433C596.836 310.934 602.37 316.772 598.966 320.459C605.067 315.479 605.452 306.71 602.467 299.805Z" fill="white"/>
<path fill-rule="evenodd" clip-rule="evenodd" d="M611.803 358.416C640.594 384.499 664.11 415.272 680.864 448.786C691.499 470.059 699.396 492.338 707.27 514.56C710.351 523.256 713.469 532.364 711.753 541.358C708.268 559.623 686.223 570.382 665.746 572.544C640.25 575.236 615.32 567.157 595.085 552.959C584.276 583.169 571.852 617.562 584.139 647.311C585.253 650.007 588.157 653.057 586.919 655.663C585.232 659.216 578.599 662.116 574.634 663.749C573.59 664.179 576.377 655.292 576.256 642.248C576.049 620.05 565.694 542.929 590.069 548.023C649.604 560.467 694.49 558.537 695.431 545.263C700.21 477.873 608.817 345.891 611.803 358.416Z" fill="#E7EAEE"/>
<path d="M547.66 114.507C551.175 99.8675 572.33 93.5821 588.11 98.3936C603.89 103.205 615.242 115.379 625.745 127.006C631.276 126.587 634.517 122.365 637.846 118.028C640.56 114.492 643.333 110.879 647.453 109.193C653.64 106.662 660.834 109.257 666.832 112.133C684.287 120.502 700.636 131.977 709.866 147.704C719.096 163.431 719.895 183.961 708.135 198.26C712.419 193.852 721.296 199.334 720.789 205.169C720.282 211.004 714.546 215.238 709.071 218.406C708.78 218.575 708.487 218.744 708.192 218.913C702.956 221.93 697.364 225.154 695.315 230.38C689.87 244.275 681.218 257.149 670.067 267.947C668.254 269.703 666.369 271.413 664.484 273.122C659.287 277.835 654.088 282.55 650.38 288.253C645.327 296.024 643.639 306.469 649.533 313.746C657.37 306.249 670.879 304.142 681.069 308.825C691.26 313.509 697.265 324.586 695.091 334.686C709.29 335.781 722.047 345.891 725.033 358.415C753.824 384.499 777.341 415.271 794.095 448.785C804.729 470.058 812.626 492.338 820.5 514.561C823.581 523.256 826.699 532.364 824.983 541.358C821.499 559.622 799.453 570.382 778.977 572.544C753.481 575.236 726.914 568.552 706.68 554.355C695.871 584.564 685.082 617.562 697.369 647.312C698.457 649.945 698.196 652.726 697.029 655.283C697.094 655.41 697.16 655.537 697.226 655.663C697.067 655.728 696.909 655.793 696.751 655.857C695.004 659.245 691.682 662.177 687.864 663.749C680.99 666.58 673.079 666.166 665.536 665.696L538.702 657.795C529.843 657.243 517.73 652.558 520.866 645.091C527.869 628.414 529.869 610.065 526.602 592.483C524.11 604.324 519.788 615.854 513.799 626.636C516.255 608.632 522.971 591.107 533.37 575.562C540.772 564.497 536.508 550.418 532.706 537.968C514.705 479.022 511.915 416.37 524.615 356.319C497.509 374.128 486.193 405.727 482.977 435.766C481.633 448.324 481.412 460.971 481.189 473.608C480.88 491.198 480.571 508.773 477.237 526.075C475.714 533.98 473.566 541.792 471.419 549.598C468.027 561.931 464.639 574.251 463.728 586.899C462.307 606.653 466.992 626.304 471.65 645.65C459.655 623.867 459.138 598.36 462.679 574.264C464.304 563.205 466.724 552.255 469.144 541.308C471.998 528.401 474.851 515.497 476.398 502.42C477.802 490.562 478.123 478.632 478.444 466.703C478.761 454.946 479.076 443.189 480.429 431.499C483.153 407.948 490.685 383.83 508.57 366.445L551.022 325.18C554.832 321.476 558.849 317.646 564.117 315.908C569.386 314.171 576.274 315.276 578.983 319.693C582.324 315.959 586.232 311.933 591.534 311.434C596.836 310.934 602.37 316.772 598.966 320.46C605.067 315.479 605.452 306.71 602.467 299.806C600.126 294.393 596.145 289.757 592.176 285.136V285.135L592.174 285.133L592.173 285.132V285.131H592.172V285.13H592.171V285.129C591.079 283.858 589.987 282.587 588.932 281.302C575.843 265.367 567.726 246.169 565.738 226.443C564.677 215.913 568.707 164.516 590.019 152.458C579.497 149.546 568.707 146.511 560.076 140.367C551.445 134.224 545.338 124.179 547.66 114.507ZM531.208 350.392C518.565 390.419 517.371 432.847 522.697 474.18C528.023 515.512 539.722 555.958 552.54 595.94C547.147 587.649 543.208 578.595 540.913 569.215C534.644 577.28 528.065 586.473 529.853 596.179C532.858 612.48 530.942 629.491 524.365 644.921C522.865 648.44 525.562 652.498 529.255 654.283C532.947 656.068 537.327 656.156 541.519 656.203L597.333 656.827C595.793 655.071 596.349 652.157 598.451 650.961C597.889 656.413 605.668 658.98 611.705 659.718C640.224 663.205 670.54 666.474 696.751 655.857C696.849 655.668 696.941 655.476 697.029 655.283C689.028 639.657 687.563 621.82 689.703 604.719C691.861 587.479 697.501 570.766 703.115 554.167C704.046 551.414 699.181 550.688 696.01 550.297C690.379 549.603 686.292 545.291 682.77 541.281L668.451 524.979C659.21 514.457 648.554 503.164 633.812 501.126C629.724 500.561 625.587 500.766 621.443 500.972C618.919 501.097 616.392 501.223 613.873 501.175C604.09 500.986 594.391 498.092 586.426 492.983C584.516 491.758 582.577 490.224 582.186 488.145C581.803 486.113 583.844 483.733 586.013 484.25C579.111 482.378 572.538 479.528 566.612 475.838C565.52 475.158 564.406 474.403 563.844 473.321C562.628 470.984 564.641 468.121 567.293 467.135C569.945 466.148 572.949 466.509 575.789 466.885C572.401 466.266 568.908 465.608 566.069 463.835C563.231 462.062 561.197 458.86 562.076 455.856C562.955 452.851 567.562 450.991 570.16 453.041C569.027 450.007 571.483 446.647 574.697 445.271C577.912 443.894 581.637 444.002 585.192 444.179C600.109 444.918 614.984 446.349 629.737 448.463L627.576 421.187C627.488 420.074 627.381 418.909 626.71 417.971C625.85 416.769 624.26 416.196 622.769 415.699C592.739 405.701 561.846 397.797 530.459 392.082L537.49 510.477C537.706 514.107 538.831 518.711 542.822 519.302C567.619 522.97 591.944 529.213 615.156 537.867C618.417 539.083 620.801 534.98 621.401 531.854L627.349 500.869C628.175 513.967 626.091 527.208 621.253 539.586C624.953 540.368 627.094 535.975 627.686 532.601L633.058 501.981C633.972 512.836 632.916 523.822 629.943 534.374C629.261 536.797 628.224 539.478 625.703 540.532C623.57 541.425 621.071 540.845 618.811 540.253L540.266 519.666C539.031 519.342 537.742 518.991 536.826 518.179C535.464 516.97 535.277 515.083 535.172 513.365L528.635 406.611C528.211 399.691 528.632 392.754 529.053 385.834L531.208 350.392ZM581.078 644.395C593.145 644.536 605.183 646.52 616.52 650.234C617.245 650.472 618.037 650.774 618.35 651.407C618.661 652.041 618.011 652.982 617.296 652.725C605.436 648.452 592.626 646.32 579.851 646.493C578.647 646.51 577.324 646.511 576.402 645.814C577.349 644.524 579.358 644.374 581.078 644.395ZM725.135 362.924C723.935 362.314 722.429 361.777 721.236 362.398C720.354 362.858 719.964 363.801 719.644 364.671C709.29 392.749 703.438 421.98 697.62 451.094C697.072 453.835 699.242 456.172 701.309 458.398C701.724 458.845 702.137 459.288 702.521 459.73C704.817 462.364 705.726 467.119 702.258 468.334C697.641 469.952 697.562 475.718 698.297 480.122L700.08 490.809C700.388 492.653 701.802 495.098 703.693 494.332C713.641 490.3 723.676 486.241 734.328 484.112C744.981 481.984 756.434 481.899 766.502 485.683C776.57 489.466 784.981 497.565 786.613 507.263C784.73 505.48 783.201 503.436 781.673 501.391C780.428 499.725 779.183 498.058 777.744 496.53C769.32 487.587 755.097 484.496 742.138 485.776C729.178 487.057 717.091 492.068 705.27 497.011C719.01 511.347 718.19 535.138 703.488 548.682C722.64 563.652 748.521 571.455 773.843 569.892C785.869 569.149 798.061 566.229 807.582 559.584C817.103 552.939 823.521 542.125 822.085 531.367C821.506 527.034 819.734 522.924 817.976 518.847L817.974 518.843L817.754 518.334L817.667 518.133L817.568 517.903C817.518 517.787 817.469 517.669 817.419 517.553C812.874 506.928 809.139 495.933 805.408 484.949C797.229 460.87 789.066 436.842 772.428 416.865C769.728 413.624 766.826 410.521 763.926 407.419C760.019 403.242 756.115 399.065 752.706 394.555C750.497 391.631 748.456 388.533 746.415 385.434C740.631 376.652 734.834 367.85 725.135 362.924ZM697.669 495.776C696.421 495.665 694.742 496.802 695.648 497.581C703.482 504.313 708.729 513.947 707.759 523.649C706.788 533.351 698.645 542.611 687.933 544.089C691.102 547.47 697.147 547.734 701.441 545.577C705.736 543.421 708.498 539.405 710.239 535.27C714.993 523.984 713.08 510.618 705.303 500.781C703.42 498.4 700.904 496.067 697.669 495.776ZM553.315 329.779C542.27 333.445 535.969 344.175 534.026 354.612C532.881 360.765 532.895 367.009 532.908 373.26C532.917 377.614 532.926 381.971 532.544 386.302C565.846 392.161 598.67 400.21 630.669 410.363C632.628 410.985 634.686 411.677 635.993 413.128C637.399 414.689 637.661 416.818 637.867 418.817C638.912 428.93 639.898 439.461 635.873 448.95L635.907 419.377C635.909 417.74 635.597 415.69 633.863 415.189C631.166 414.408 629.902 418.112 630.124 420.651L632.05 442.635C632.313 445.644 632.801 449.035 635.495 450.837L587.079 446.466C582.05 446.012 576.023 445.936 573.081 449.63C573.565 453.165 578.266 454.648 582.145 455.375L612.964 461.15C603.32 462.942 593.184 461.334 584.061 458.004C583.367 457.751 582.675 457.487 581.983 457.224C579.095 456.123 576.195 455.018 573.099 454.65C569.26 454.195 564.923 455.135 562.693 457.981C576.482 466.176 592.508 471.308 608.956 472.796C608.856 474.4 606.476 474.88 604.693 474.764C600.054 474.46 595.592 473.237 591.126 472.013C589.053 471.444 586.979 470.876 584.886 470.399C578.283 468.895 570.882 468.397 565.021 471.516C578.212 481.185 595.606 484.545 612.283 487.609L584.668 487.081C589.552 494.892 600.51 497.769 610.465 498.243C612.672 498.348 614.895 498.372 617.12 498.376H619.349C626.42 498.368 633.484 498.36 640.168 500.292C652.301 503.8 661.089 513.053 669.205 521.885L684.856 538.916C686.99 541.238 691.057 541.495 694.072 540.182C697.088 538.869 699.216 536.338 700.884 533.726C704.198 528.535 706.169 522.441 705.1 516.534C704.03 510.628 699.495 505.046 693.106 503.362C682.131 500.47 674.339 491.703 668.953 482.635C667.104 479.522 665.443 476.31 663.783 473.1C660.607 466.959 657.435 460.825 652.959 455.404C651.617 453.779 650.155 452.213 648.693 450.647C645.081 446.774 641.471 442.904 639.684 438.166C648.878 446.162 656.682 455.448 662.725 465.584C663.38 466.683 664.103 467.869 665.368 468.38C666.179 468.707 667.1 468.705 667.988 468.697L691.724 468.493C694.097 468.473 696.583 468.427 698.662 467.397C700.741 466.366 702.21 464.005 701.249 462.055C700.336 460.203 697.704 459.535 695.47 459.798C694.175 459.95 692.938 460.33 691.699 460.711C690.8 460.988 689.899 461.265 688.975 461.455C684.373 462.401 679.677 461.154 675.007 459.914C669.951 458.572 664.925 457.238 660.082 458.702C663.214 454.041 663.008 448.276 662.811 442.8C662.801 442.514 662.791 442.228 662.781 441.943C661.787 412.859 668.966 383.577 683.472 357.563C678.118 361.005 674.275 366.296 672.924 372.086C672.763 372.774 672.635 373.472 672.507 374.17C672.178 375.962 671.85 377.754 670.97 379.377C667.402 385.955 657.328 386.444 649.219 385.786C642.573 385.247 635.607 384.462 630.194 380.955C627.479 379.196 625.294 376.835 623.12 374.486C620.226 371.36 617.353 368.256 613.282 366.628C606.529 363.928 599.313 366.178 592.011 368.455C585.414 370.512 578.748 372.59 572.292 371.06C568.654 370.198 566.139 374.213 565.047 377.448L560.289 391.546C558.07 383.84 560.781 375.146 567.133 369.599C564.412 367.995 565.145 364.702 565.87 361.442C566.605 358.141 567.332 354.873 564.456 353.427C555.775 349.062 554.057 338.695 553.315 329.779ZM691.467 471.354C684.744 470.843 677.975 470.831 671.25 471.318L672.593 476.585C672.799 477.395 672.986 478.31 672.478 479.005C671.97 479.699 670.47 479.691 670.342 478.868L669.36 472.567C669.31 472.246 669.251 471.906 669.021 471.656C668.438 471.022 667.167 471.479 666.857 472.253C666.548 473.028 666.876 473.88 667.217 474.644C672.833 487.253 683.346 498.861 697.768 502.921C697.313 501.9 696.441 501.118 695.566 500.331C695.088 499.901 694.608 499.469 694.194 498.997C693.024 497.661 692.564 495.408 694.14 494.467C694.628 494.175 695.253 494.048 695.862 493.924C696.797 493.733 697.695 493.55 698.012 492.794C695.975 486.632 694.622 480.287 693.978 473.885C693.9 473.105 693.776 472.227 693.079 471.758C692.626 471.453 692.03 471.396 691.467 471.354ZM707.029 341.744C704.61 340.098 701.867 338.365 698.849 338.645C695.83 338.925 693.347 342.528 695.491 344.458C697.208 346.003 697.713 348.531 696.701 350.516C695.69 352.5 693.23 353.808 690.808 353.648C689.244 353.546 688.174 354.996 687.478 356.259C671.213 385.801 663.683 419.184 665.863 452.087C665.927 453.052 666.046 454.111 666.82 454.781C667.362 455.25 668.126 455.435 668.854 455.603L679.585 458.07C682.586 458.761 685.701 459.455 688.749 458.959C691.797 458.463 694.767 456.424 695.084 453.654C698.997 419.486 707.753 385.768 721.074 353.573C721.692 352.079 720.106 350.642 718.692 349.68L707.029 341.744ZM691.091 451.536C691.722 451.519 692.357 451.725 692.831 452.099C693.998 453.019 693.845 454.945 692.544 455.706C691.243 456.468 689.221 455.815 688.757 454.483C688.293 453.152 689.539 451.578 691.091 451.536ZM669.467 447.397C670.843 446.996 672.499 447.852 672.806 449.122C673.113 450.392 672.001 451.789 670.564 451.938C669.911 452.005 669.231 451.839 668.706 451.484C668.351 451.244 668.066 450.92 667.888 450.554C667.308 449.363 668.091 447.797 669.467 447.397ZM537.15 389.02C534.856 388.696 532.117 388.563 530.628 390.165C553.94 393.074 576.395 399.611 598.833 406.144L598.837 406.145C605.752 408.158 612.666 410.171 619.603 412.077C623.528 413.155 627.515 414.208 631.615 414.342C622.97 409.865 613.275 407.34 603.688 404.856L572.19 396.692C560.631 393.697 549.035 390.693 537.15 389.02ZM668.288 324.967C659.992 325.611 652.423 328.934 644.847 332.261C637.539 335.469 630.225 338.681 622.244 339.494C627.04 342.419 629.303 348.024 628.653 353.199C628.003 358.375 624.778 363.087 620.587 366.684C624.175 372.861 630.102 377.915 637.153 380.813C639.638 381.833 642.485 382.597 645.073 381.81C645.637 381.638 646.24 381.408 646.852 381.175H646.853V381.174C649.088 380.322 651.456 379.421 652.577 381.094C654.68 384.232 660.049 383.512 663.531 381.608C665.91 380.308 668.124 378.547 669.103 376.204C670.083 373.862 669.502 370.87 667.213 369.446C665.311 368.263 664.672 365.709 665.826 363.908C666.981 362.107 669.76 361.324 671.852 362.209C673.679 362.982 675.39 361.055 676.481 359.527C679.05 355.932 682.834 353.048 687.2 351.359C685.452 349.049 685.697 345.68 687.766 343.595C682.422 340.084 678.136 335.287 675.475 329.841C675.037 333.086 670.076 334.981 667.173 333.012C664.27 331.043 664.936 326.236 668.288 324.967ZM624.921 364.642C625.972 362.109 630.011 361.08 632.385 362.739C634.759 364.399 634.643 368.171 632.171 369.71C629.699 371.249 625.729 370.021 624.835 367.44C624.52 366.533 624.551 365.532 624.921 364.642ZM573.495 320.81C571.638 317.554 566.681 316.084 563.033 317.709C557.854 320.017 557.132 326.274 557.103 331.47C557.097 332.694 557.48 334.319 558.84 334.389C562.317 334.566 563.962 339.419 561.186 341.309C558.468 343.16 560.408 347.173 563.112 349.042C563.702 349.45 564.334 349.84 564.969 350.232C567.243 351.639 569.559 353.072 570.151 355.408C570.592 357.148 569.94 358.991 569.303 360.792C568.506 363.044 567.733 365.228 569.151 367.059C570.888 369.3 574.592 369.082 577.579 368.579C586.923 367.005 596.185 365.033 605.321 362.671C599.804 358.617 597.137 351.666 598.701 345.417C599.099 343.829 597.262 342.599 595.777 341.666C594.293 340.733 592.823 338.915 593.969 337.654C594.586 336.975 593.745 336.024 592.974 335.486L578.138 325.149C576.358 323.909 574.522 322.611 573.495 320.81ZM611.498 337.726C609.358 337.451 606.944 337.646 605.412 339.017C602.043 342.03 600.713 346.627 601.503 350.84C602.293 355.052 605.045 358.854 608.673 361.614C611.385 363.677 615.208 365.239 618.428 363.889C619.386 363.487 620.204 362.855 620.934 362.166C625.008 358.32 626.441 352.379 624.504 347.361C622.567 342.344 617.348 338.477 611.498 337.726ZM572.902 356.259C573.279 353.733 576.567 351.926 579.24 352.774C581.535 353.503 582.933 355.984 582.228 358.077C581.672 359.73 579.911 360.996 577.995 361.122C575.167 361.308 572.526 358.784 572.902 356.259ZM646.315 344.731C648.085 343.198 651.206 343.177 653.001 344.687C654.918 346.299 654.944 349.377 653.054 351.015C651.163 352.652 647.742 352.516 646.019 350.734C644.407 349.067 644.545 346.265 646.315 344.731ZM643.281 292.419C638.823 295.543 634.304 298.699 629.126 300.737C623.948 302.776 617.955 303.609 612.616 301.938C610.808 301.371 607.907 301.123 607.836 302.843C607.483 311.453 603.897 319.931 597.796 326.577C596.197 325.483 595.982 323.397 596.223 321.605C596.274 321.22 596.34 320.833 596.406 320.445V320.444C596.648 319.025 596.892 317.595 596.442 316.235C595.87 314.504 593.527 313.093 591.842 314.076L579.717 321.154C585.508 327.475 593.051 332.489 601.471 335.616C602.695 336.071 604.196 336.46 605.258 335.748C608.119 333.831 611.648 334.892 615.269 335.981C618.448 336.937 621.698 337.915 624.629 336.913C634.16 333.656 643.518 329.986 652.657 325.921C657.873 323.601 663.657 321.083 669.266 322.477C674.407 323.754 677.86 327.96 680.904 331.897L687.295 340.16C688.662 341.928 692.09 340.959 693.064 338.992C694.039 337.025 693.374 334.748 692.697 332.683L689.576 323.152C688.568 320.075 687.514 316.915 685.312 314.391C680.845 309.269 672.504 307.981 665.494 309.613C658.484 311.245 652.495 315.248 646.774 319.238L646.254 319.602L644.164 321.055C639.267 324.436 634.195 327.679 628.351 329.382C627.552 329.068 628.205 327.99 628.902 327.52L646.527 315.624C643.113 308.351 641.976 300.226 643.281 292.419ZM594.172 154.789C593.375 154.572 592.514 154.355 591.727 154.6C590.952 154.841 590.426 155.475 589.956 156.079C576.299 173.665 569.002 195.102 568.895 216.548C568.789 237.994 575.808 259.371 588.448 277.561C592.925 284.003 598.161 290.122 604.778 294.848C607.956 297.117 611.539 299.086 615.534 299.728C623.161 300.953 630.624 297.193 636.9 293.11C667.816 273.004 688.211 242.254 702.492 210.448L694.761 217.359C693.172 218.779 691.415 220.276 689.193 220.536C686.972 220.796 684.393 219.056 684.969 217.11C687.475 208.638 687.917 199.677 686.257 191.038C685.451 186.844 683.604 182.152 679.168 180.66C651.147 171.239 622.796 162.609 594.172 154.789ZM653.243 225.64C656.519 222.466 662.934 220.949 665.812 224.42C666.535 225.292 666.914 226.358 667.125 227.429C667.814 230.932 666.814 234.534 665.399 237.856C659.308 252.163 644.924 263.376 628.305 266.773C621.616 268.14 614.237 268.22 608.285 265.156C602.333 262.092 598.507 255.2 601.117 249.499C604.181 242.808 613.665 240.932 621.714 240.78C622.419 240.767 623.132 240.757 623.85 240.747C631.318 240.647 639.292 240.541 644.697 236.071C646.621 234.481 648.009 232.48 649.399 230.475C650.571 228.785 651.745 227.091 653.243 225.64ZM660.926 225.384C659.719 225.224 658.517 225.709 657.515 226.334C655.022 227.888 653.424 230.23 651.817 232.584C650.542 234.453 649.262 236.329 647.524 237.827C642.986 241.738 636.198 242.431 629.935 242.918L617.896 243.855C614.826 244.093 611.645 244.362 608.973 245.742C603.953 248.334 602.213 254.962 605.412 259.298C608.872 263.987 616.086 265.005 622.317 264.463C641.524 262.793 658.821 249.547 663.704 232.769C664.534 229.917 664.17 225.815 660.926 225.384ZM586.646 238.523C586.995 243.337 587.158 248.163 587.134 252.987C584.765 251.427 584.501 248.377 584.617 245.739C584.704 243.774 584.882 241.812 585.149 239.859C585.242 239.183 585.893 238.601 586.646 238.523ZM666.287 217.085C666.726 216.776 667.351 216.808 667.893 216.927C670.861 217.579 672.696 220.196 674.054 222.656C674.413 223.307 674.766 224.066 674.45 224.734C674.134 225.403 672.799 225.548 672.626 224.838C671.914 221.911 669.468 219.373 666.347 218.321C665.824 218.145 665.848 217.394 666.287 217.085ZM628.113 201.232C628 203.605 626.669 205.89 624.63 207.399C623.177 208.475 621.405 209.168 619.997 210.291C618.59 211.414 617.572 213.229 618.3 214.789C619.199 216.715 622.087 217.079 624.375 216.708C625.189 216.576 626.032 216.39 626.829 216.586C627.627 216.782 628.328 217.538 628.055 218.239C627.863 218.732 627.288 219.006 626.747 219.196C623.396 220.375 619.212 219.936 616.726 217.598C614.239 215.259 614.176 210.978 617.017 208.992C620.716 206.406 624.414 203.819 628.113 201.232ZM686.407 183.513C685.886 184.032 686.261 184.847 686.625 185.465C691.852 194.352 690.373 205.081 688.782 215.031C688.613 216.088 688.444 217.158 688.561 218.221C691.957 215.806 695.377 213.372 698.203 210.423C701.03 207.474 703.258 203.943 703.862 200.089C703.962 199.452 704.019 198.804 704.076 198.156C704.21 196.623 704.344 195.092 705.051 193.707C705.656 192.521 704.116 191.399 702.814 190.819L686.407 183.513ZM716.023 200.344C714.134 198.977 711.173 199.457 709.369 200.913C707.565 202.37 706.703 204.543 706.185 206.672C706.032 207.297 705.903 207.928 705.774 208.56C705.464 210.078 705.155 211.596 704.523 213.027C704.42 213.262 704.307 213.499 704.193 213.737C703.625 214.934 703.038 216.172 703.462 217.38C710.265 216.987 716.42 212.061 717.64 206.033C718.049 204.01 717.806 201.633 716.023 200.344ZM652.4 188.268C654.104 187.242 656.299 186.673 658.227 187.3C660.59 188.069 661.888 190.387 662.337 192.609C662.979 195.79 662.207 199.356 659.602 201.584C656.996 203.812 652.39 204.17 649.874 201.859C649.019 201.074 648.455 200.061 648.104 199.009C646.806 195.106 648.635 190.534 652.4 188.268ZM589.26 102.127C582.739 99.5904 575.2 98.666 568.49 100.765C571.513 100.902 573.881 103.998 572.942 106.584C572.003 109.17 568.058 110.414 565.527 108.922C562.996 107.43 562.693 103.683 564.958 101.878C558.096 103.704 552.33 108.582 549.888 114.627C549.406 115.819 549.048 117.137 549.488 118.342C549.737 119.021 550.224 119.625 550.706 120.222C551.387 121.064 552.056 121.893 552.025 122.902C551.778 130.985 560.583 138.302 569.528 137.449C571.28 137.282 571.986 138.853 572.719 140.482C573.068 141.26 573.423 142.05 573.901 142.672C574.755 143.782 576.181 144.401 577.547 144.963C591.432 150.671 605.799 155.431 620.484 159.188C622.186 159.623 624.516 159.804 625.237 158.353C626.206 156.404 629.02 155.392 631.216 156.203C633.412 157.014 634.622 159.511 633.787 161.509C633.413 162.404 634.64 163.13 635.641 163.455L685.666 179.711C684.743 176.383 689.447 173.076 692.818 174.682C696.189 176.287 695.786 181.642 692.205 182.824L710.488 191.11L713.771 166.995C713.925 165.869 713.423 164.194 712.213 164.516C709.97 165.113 707.325 163.973 706.439 162.026C705.554 160.08 706.55 157.602 708.616 156.614C710.206 155.855 710.799 153.982 710.447 152.395C710.096 150.808 709.008 149.443 707.923 148.151C696.181 134.182 681.306 122.288 664.246 113.836C659.674 111.571 654.132 109.529 649.407 111.525C646.672 112.681 644.833 114.955 643.034 117.178C642.748 117.532 642.462 117.884 642.175 118.231C638.577 122.565 634.126 126.325 629.091 129.284L645.03 143.858C643.712 141.301 645.719 137.855 648.809 137.37C651.898 136.886 655.084 139.516 654.809 142.324C654.532 145.132 650.882 147.221 647.935 146.257C654.591 151.09 661.96 156.165 670.517 156.233C673.893 156.26 676.247 160.319 674.339 162.822C672.43 165.326 667.37 164.818 666.122 161.998C664.722 158.836 661.113 157.119 657.708 155.499C657.347 155.327 656.987 155.157 656.634 154.985C645.19 149.446 636.393 140.649 627.639 131.896C625.342 129.599 623.049 127.305 620.711 125.074C616.27 120.836 611.611 116.78 606.756 112.926C601.431 108.698 595.78 104.664 589.26 102.127ZM605.021 175.447C605.98 175.386 606.993 175.47 607.799 175.94C608.956 176.616 609.428 177.918 609.684 179.137C610.326 182.194 610.027 185.607 607.85 188.026C605.672 190.445 601.251 191.319 598.664 189.251C597.858 188.606 597.29 187.747 596.909 186.84C595.882 184.393 596.217 181.517 597.786 179.314C599.355 177.112 602.119 175.634 605.021 175.447ZM690.405 137.377C692.959 137.263 695.408 139.209 695.596 141.5C695.794 143.931 693.378 146.274 690.666 146.281C688.109 146.288 685.764 144.24 685.697 141.943C685.63 139.646 687.852 137.491 690.405 137.377ZM606.727 137.809C609.386 136.626 613.055 138.158 613.765 140.747C614.128 142.073 613.768 143.544 612.818 144.61C610.965 146.692 606.918 146.697 605.058 144.62C603.198 142.543 604.068 138.992 606.727 137.809ZM584.156 121.761C585.099 119.606 588.162 118.433 590.545 119.314C592.417 120.007 593.685 121.839 593.551 123.654C593.349 126.367 589.811 128.418 586.978 127.463C584.566 126.65 583.213 123.916 584.156 121.761ZM668.178 119.293C670.552 118.355 673.675 119.572 674.537 121.77C675.32 123.766 674.138 126.217 671.982 127.069C669.826 127.921 667.017 127.048 665.909 125.18C664.689 123.123 665.804 120.231 668.178 119.293Z" fill="#00160A"/>
</svg>
