<svg width="1247" height="762" viewBox="0 0 1247 762" fill="none" xmlns="http://www.w3.org/2000/svg">
<rect width="1247" height="762" fill="white"/>
<rect width="877" height="762" transform="translate(190)" fill="white"/>
<path fill-rule="evenodd" clip-rule="evenodd" d="M354.23 557.72C407.166 607.787 611.871 579.028 746.659 579.028C804.809 579.028 999.947 604.35 919.366 430.446C655.154 -139.754 186.503 399.085 354.23 557.72Z" fill="#D9F8FE"/>
<path fill-rule="evenodd" clip-rule="evenodd" d="M588.447 561.748C588.704 561.576 588.974 561.39 589.086 561.126C589.445 560.278 588.036 559.714 586.996 559.734C585.487 559.764 583.552 560.647 584.014 561.896C584.281 562.618 585.305 562.953 586.165 562.82C587.025 562.687 587.754 562.21 588.447 561.748H588.447ZM592.933 546.881C594.072 547.191 595.197 547.575 596.189 548.152C598.052 549.236 599.32 550.919 600.537 552.556C601.409 553.729 602.293 554.925 602.728 556.27C603.2 557.726 603.116 559.28 602.8 560.768C601.816 565.402 598.525 569.631 593.941 572.149C589.357 574.668 583.549 575.438 578.309 574.223C577.289 573.987 576.262 573.664 575.477 573.051C574.818 572.535 574.374 571.848 573.967 571.163C571.832 567.567 570.394 563.573 570.558 559.53C570.722 555.486 572.635 551.395 576.258 548.854C580.805 545.665 587.357 545.361 592.933 546.881" fill="white"/>
<path fill-rule="evenodd" clip-rule="evenodd" d="M833.58 326.928C831.082 326.9 828.739 328.721 828.491 330.881C828.39 331.764 828.821 332.861 829.833 332.983C830.591 333.074 831.256 332.565 831.765 332.069C832.843 331.02 833.768 329.853 834.513 328.604C834.763 328.185 834.983 327.647 834.655 327.272C834.415 326.998 833.976 326.932 833.58 326.928ZM832.499 317.241C836.047 318.316 839.262 320.208 841.729 322.671C843.849 324.788 845.464 327.535 845.018 330.314C844.854 331.335 844.421 332.308 843.927 333.244C842.056 336.79 838.837 340.189 834.417 340.876C832.099 341.236 829.708 340.804 827.478 340.145C824.899 339.383 822.44 338.314 820.192 336.977C819 336.268 817.815 335.426 817.293 334.255C816.932 333.449 816.921 332.56 816.935 331.695C816.968 329.555 817.131 327.379 817.99 325.373C819.077 322.835 821.202 320.74 823.456 318.871C824.363 318.119 825.324 317.378 826.488 316.975C828.393 316.316 830.563 316.654 832.499 317.241" fill="white"/>
<path fill-rule="evenodd" clip-rule="evenodd" d="M833.584 162.852C848.264 176.006 859.85 191.734 867.435 208.804C867.956 209.976 868.461 211.279 867.964 212.459C864.138 221.545 856.753 229.121 849.513 236.487C844.886 241.194 840.259 245.9 835.633 250.607C831.216 255.1 826.798 259.595 822.232 263.975C798.985 286.277 771.514 305.779 739.7 317.779C738.499 318.231 737.211 318.683 735.918 318.502C734.625 318.321 733.413 317.234 733.752 316.139C737.685 303.412 741.644 290.106 738.488 277.218C737.726 274.109 736.877 270.195 739.845 268.324C763.873 253.179 781.173 231.531 797.753 210.177C801.922 204.807 806.079 199.423 809.769 193.797C816.318 183.807 821.363 173.079 824.734 161.97C825.196 160.446 827.42 159.759 829.181 160.159C830.943 160.558 832.319 161.718 833.584 162.852" fill="white"/>
<path fill-rule="evenodd" clip-rule="evenodd" d="M375.783 213.952C378.17 232.699 384.812 251.03 395.217 267.583C401.66 277.832 409.496 287.361 417.312 296.862C422.75 303.473 428.566 310.363 437.052 313.78C439.308 314.689 438.993 317.515 438.388 319.611C435.77 328.669 434.549 338.031 434.767 347.368C434.787 348.251 434.814 349.165 434.415 349.976C433.061 352.731 428.421 352.272 425.227 351.145C405.464 344.175 390.29 330.156 376.116 316.307C357.713 298.327 339.584 279.557 328.712 257.426C327.973 255.922 327.256 254.338 327.38 252.706C327.506 251.043 328.489 249.531 329.487 248.108C339.342 234.043 353.053 222.033 369.159 213.357C370.294 212.745 371.505 212.133 372.839 212.093C374.173 212.053 375.636 212.799 375.783 213.952" fill="white"/>
<path fill-rule="evenodd" clip-rule="evenodd" d="M830.703 542.823C832.407 540.315 834.518 537.554 837.824 537.078C839.127 536.891 839.814 535.66 840.258 534.579C845.723 521.26 846.249 506.448 841.741 492.861C840.455 488.983 842.039 484.872 843.606 481.072C847.652 471.267 851.697 461.462 855.742 451.657C853.425 448.174 847.314 448.277 844.183 445.313C840.154 441.498 843.193 435.432 846.349 431.04C864.788 405.384 883.226 379.727 901.665 354.07C903.924 350.927 908.881 349.941 913.036 350.779C917.19 351.616 920.739 353.888 924.156 356.106C937.604 364.833 951.051 373.56 964.499 382.288C971.716 386.972 979.684 392.955 979.269 400.774C979.039 405.1 976.189 408.946 973.433 412.555C962.775 426.509 952.117 440.462 941.46 454.416C935.456 462.277 937.114 472.602 935.299 481.904C932.432 496.601 920.832 508.672 910.091 520.296C899.349 531.92 888.601 544.9 887.998 559.798C887.278 577.554 877.569 594.897 861.936 606.35C866.471 596.792 837.824 600.604 805.053 589.276C810.446 572.7 820.627 557.657 830.703 542.823Z" fill="white"/>
<path fill-rule="evenodd" clip-rule="evenodd" d="M470.869 584.393C468.826 582.94 468.174 580.489 467.813 578.21C463.64 551.845 481.563 525.822 478.37 499.354C476.725 485.713 469.512 472.986 460.435 461.792C454.166 454.062 453.815 443.706 456.153 434.457C458.492 425.208 463.21 416.56 466.391 407.504C480.541 367.237 463.324 324.218 446.301 284.808C480.221 270.555 519.804 273.316 557.382 275.247C594.96 277.178 635.374 277.314 666.694 259.08C670.987 298.526 661.521 338.016 652.109 376.778C699.867 372.736 747.624 368.693 795.381 364.65C796.751 364.534 798.248 364.445 799.386 365.121C800.904 366.022 801.137 367.861 801.224 369.462C803.457 410.484 804.81 451.543 805.284 492.61C805.296 493.64 805.255 494.789 804.423 495.519C803.711 496.145 802.624 496.275 801.621 496.373C734.712 502.851 667.802 509.33 600.893 515.808C595.107 516.369 586.865 515.059 587.204 509.984C588.715 487.357 587.833 464.607 584.573 442.121C566.791 441.536 548.889 443.892 532.094 449.027C528.284 450.192 523.702 453.324 525.757 456.358C539.353 476.432 522.479 506.605 540.943 523.455C547.292 529.249 546.853 538.364 545.595 546.307C542.898 563.334 538.316 580.132 531.934 596.392C535.019 577.677 472.755 594.429 470.869 584.393Z" fill="white"/>
<path fill-rule="evenodd" clip-rule="evenodd" d="M279.491 159.539C279.548 159.939 279.299 160.359 278.891 160.55C278.566 160.268 278.242 159.986 277.917 159.703C278.404 159.518 278.956 159.466 279.477 159.554L279.491 159.539Z" fill="#00160A"/>
<path fill-rule="evenodd" clip-rule="evenodd" d="M591.763 546.881C592.903 547.191 594.028 547.575 595.02 548.152C596.883 549.236 598.151 550.919 599.367 552.556C600.24 553.729 601.124 554.925 601.559 556.27C602.03 557.726 601.946 559.28 601.631 560.768C600.647 565.402 597.355 569.631 592.772 572.149C588.188 574.668 582.38 575.438 577.14 574.223C576.119 573.987 575.092 573.664 574.308 573.051C573.648 572.535 573.204 571.848 572.797 571.163C570.663 567.567 569.224 563.573 569.388 559.53C569.553 555.486 571.466 551.395 575.089 548.854C579.636 545.665 586.188 545.361 591.763 546.881M585.373 570.953C588.224 570.577 590.732 568.96 592.37 566.898C594.008 564.837 594.849 562.365 595.253 559.885C595.483 558.469 595.504 556.845 594.353 555.823C593.664 555.21 592.681 554.937 591.737 554.692C588.193 553.77 584.148 552.987 580.974 554.637C578.662 555.839 577.373 558.066 576.205 560.175C574.837 562.644 575.175 565.761 577.05 567.965C578.925 570.169 582.255 571.365 585.373 570.953V570.953Z" fill="#00160A"/>
<path fill-rule="evenodd" clip-rule="evenodd" d="M721.959 435.648C722.008 435.123 722.081 434.559 722.481 434.163C722.872 433.775 723.488 433.636 724.066 433.519C738.956 430.507 754.336 429.329 769.603 430.03C771.548 430.119 774.048 430.691 774.177 432.379C774.915 442.058 775.652 451.736 776.389 461.414C776.427 461.904 776.445 462.447 776.085 462.825C775.791 463.132 775.317 463.251 774.871 463.352C758.992 466.949 742.254 467.658 726.048 465.421C725.63 465.363 725.191 465.295 724.867 465.059C724.476 464.774 724.339 464.31 724.227 463.877C721.837 454.639 721.07 445.085 721.959 435.648ZM725.47 451.703C725.762 455.358 726.644 458.977 728.083 462.42C729.517 462.6 730.937 462.859 732.366 463.069C744.682 464.881 757.278 463.058 769.593 461.237C770.467 461.108 771.425 460.937 771.964 460.325C772.515 459.701 772.442 458.832 772.342 458.05C771.918 454.715 771.494 451.38 771.07 448.045C771.036 447.776 770.992 447.488 770.782 447.288C770.528 447.045 770.112 447.005 769.735 446.984C760.984 446.483 752.204 447.051 743.459 447.618C738.625 447.931 733.791 448.245 728.956 448.558C727.82 448.632 726.53 448.778 725.877 449.589C725.395 450.186 725.411 450.976 725.47 451.703ZM725.606 437.755C724.841 439.886 724.704 442.185 725.21 444.374C725.302 444.767 725.43 445.182 725.773 445.45C726.282 445.847 727.059 445.782 727.736 445.696C735.972 444.647 744.297 444.127 752.621 444.139C753.795 444.14 754.155 442.767 754.142 441.747C754.123 440.252 754.105 438.757 754.086 437.262C754.075 436.397 754.025 435.445 753.344 434.814C752.525 434.056 751.156 434.08 749.963 434.159C747.206 434.342 744.448 434.525 741.69 434.708C740.371 434.796 736.873 435.574 735.265 435.666C732.465 436.054 729.665 436.442 726.866 436.831C726.567 436.872 726.252 436.92 726.022 437.09C725.799 437.256 725.694 437.51 725.606 437.755ZM762.529 444.257C764.718 444.282 766.909 444.091 769.049 443.691C769.558 443.596 770.093 443.475 770.457 443.151C770.99 442.674 770.985 441.927 770.946 441.263C770.833 439.336 770.72 437.409 770.607 435.481C770.566 434.794 770.477 434.02 769.859 433.589C769.315 433.211 768.547 433.234 767.852 433.275C765.418 433.418 762.985 433.562 760.551 433.706C760.166 433.729 759.761 433.757 759.439 433.942C758.85 434.281 758.761 434.99 758.745 435.603C758.691 437.646 758.787 439.692 759.032 441.724C759.103 442.313 759.202 442.932 759.621 443.398C760.273 444.125 761.469 444.245 762.529 444.257Z" fill="#FFB61D"/>
<path fill-rule="evenodd" clip-rule="evenodd" d="M760.067 393.354C763.32 392.131 767.311 392.541 770.147 394.389C772.982 396.237 774.551 399.452 774.109 402.507C776.103 401.571 778.631 400.649 780.491 401.773C782.591 403.043 782.111 405.777 781.795 407.983C781.244 411.837 781.959 415.822 783.834 419.348C784.609 420.804 785.274 423.014 783.556 423.601C783.266 423.701 782.95 423.723 782.639 423.745C762.492 425.156 742.344 426.567 722.197 427.978C721.644 428.016 721.026 428.037 720.608 427.721C720.181 427.398 720.128 426.849 720.105 426.358C719.912 422.24 719.719 418.123 719.525 414.005C719.474 412.901 719.449 411.71 720.167 410.797C721.355 409.287 723.844 409.291 725.923 409.002C728.002 408.713 730.421 407.189 729.62 405.496C728.728 403.61 731.769 402.232 734.089 401.925C736.41 401.618 739.488 400.416 738.785 398.47C738.017 396.344 741.384 395.025 743.926 394.732C745.719 394.525 747.595 394.325 749.296 394.859C750.997 395.394 752.435 396.916 752.052 398.452C751.613 400.211 754.079 401.85 756.023 401.229C757.967 400.607 758.755 398.299 757.771 396.715C756.967 395.422 758.515 393.938 760.067 393.354ZM770.471 420.488C769.718 419.274 769.712 417.829 769.705 416.45C769.673 409.973 769.215 403.499 768.334 397.068C768.29 396.743 768.219 396.381 767.913 396.19C767.65 396.026 767.295 396.046 766.972 396.072C765.398 396.2 763.533 396.502 762.911 397.765C762.646 398.303 762.677 398.913 762.713 399.498C763.112 405.988 763.511 412.479 763.911 418.97C763.948 419.575 764.04 420.269 764.619 420.606C764.934 420.79 765.331 420.825 765.71 420.843C767.305 420.918 768.913 420.799 770.471 420.488ZM743.373 410.508C743.177 411.589 742.903 412.663 742.83 413.756C742.708 415.582 743.15 417.397 743.591 419.186C743.873 420.333 745.579 420.898 746.83 420.455C748.08 420.013 748.835 418.854 749.043 417.695C749.251 416.536 749.007 415.357 748.795 414.198C747.96 409.648 747.598 405.032 747.716 400.425C747.746 399.259 746.437 398.207 745.102 398.322C743.766 398.437 742.721 399.692 743.014 400.83C743.829 403.999 743.952 407.301 743.373 410.508ZM756.623 404.292C755.838 403.398 754.037 403.874 753.424 404.865C752.811 405.855 752.999 407.057 753.151 408.174C753.548 411.09 753.586 414.044 753.264 416.968C753.169 417.83 753.063 418.771 753.611 419.494C754.454 420.607 756.302 420.597 757.827 420.462C758.305 420.42 758.855 420.339 759.095 419.978C759.263 419.726 759.223 419.414 759.179 419.126C758.475 414.589 757.772 410.053 757.069 405.517C757.002 405.087 756.926 404.636 756.623 404.292ZM774.075 406.241C773.483 406.942 773.358 407.855 773.307 408.724C773.131 411.701 773.585 414.677 774.038 417.632C774.216 418.796 774.829 420.293 776.178 420.214C777.545 420.133 777.902 418.544 777.87 417.354C777.786 414.202 777.702 411.049 777.618 407.897C777.595 407.068 777.495 406.108 776.703 405.645C775.873 405.16 774.667 405.54 774.075 406.241ZM732.778 405.496C732.778 405.496 733.378 409.61 733.587 411.707C733.85 414.338 734.185 416.964 734.592 419.582C734.651 419.962 734.73 420.374 735.053 420.635C735.612 421.089 737.771 420.788 738.169 420.22C738.566 419.651 738.544 418.942 738.509 418.278C738.4 416.177 738.29 414.075 738.181 411.974C738.063 409.722 737.447 404.865 737.447 404.865M724.947 420.393C725.12 420.864 725.324 421.357 725.762 421.673C726.618 422.288 728.006 421.907 728.681 421.141C729.355 420.374 729.507 419.364 729.636 418.405C729.795 417.229 729.948 416.006 729.509 414.885C729.071 413.764 727.857 412.777 726.5 412.881C725.251 412.977 724.284 413.968 723.992 415.028C723.701 416.087 723.947 417.198 724.25 418.255C724.456 418.974 724.689 419.687 724.947 420.393Z" fill="#E7EAEE"/>
<path fill-rule="evenodd" clip-rule="evenodd" d="M806.62 251.929C804.993 254.051 803.23 256.2 800.713 257.51C798.196 258.819 794.721 259.075 792.459 257.451C789.964 255.659 789.81 252.429 790.007 249.622C790.083 248.541 790.183 247.452 790.54 246.414C791.158 244.615 792.508 243.079 793.917 241.655C795.626 239.927 797.52 238.261 799.891 237.289C802.263 236.316 805.209 236.146 807.432 237.355C810.091 238.803 811.075 241.883 810.572 244.575C810.068 247.267 808.36 249.66 806.62 251.929M801.454 254.174C803.505 252.275 805.265 250.139 806.671 247.84C807.596 246.327 808.383 244.682 808.346 242.969C808.309 241.256 807.269 239.465 805.438 238.829C803.053 238.001 800.434 239.326 798.441 240.733C797.022 241.735 795.648 242.834 794.737 244.212C794.162 245.083 793.788 246.042 793.417 246.994C792.716 248.794 792.005 250.67 792.272 252.556C792.539 254.443 794.093 256.336 796.268 256.532C798.282 256.713 800.068 255.456 801.454 254.174Z" fill="#FFB61D"/>
<path fill-rule="evenodd" clip-rule="evenodd" d="M387.6 275.907C390.148 278.15 392.251 280.773 393.79 283.627C395.337 286.495 393.777 290.181 390.742 291.936C387.708 293.69 383.604 293.667 380.277 292.374C376.949 291.081 374.334 288.668 372.408 285.979C370.956 283.951 369.83 281.679 369.709 279.294C369.589 276.908 370.6 274.397 372.772 272.934C374.968 271.455 378.057 271.243 380.714 271.953C383.371 272.663 385.647 274.188 387.6 275.907M377.657 274.543C375.452 274.346 373.493 276.104 373.115 278.002C372.737 279.9 373.57 281.825 374.647 283.508C376.983 287.158 381.151 290.4 385.952 290.198C388.42 290.094 391.125 288.609 391.081 286.462C391.062 285.534 390.535 284.678 390.009 283.87C388.611 281.724 387.1 279.599 385.083 277.864C383.066 276.129 380.481 274.796 377.657 274.543Z" fill="#FFB61D"/>
<path fill-rule="evenodd" clip-rule="evenodd" d="M580.275 558.244C582.045 557.076 584.247 556.32 586.465 556.444C588.683 556.568 590.879 557.674 591.807 559.429C592.803 561.313 592.182 563.653 590.628 565.226C589.075 566.799 586.733 567.668 584.37 567.955C582.758 568.151 580.835 567.975 579.953 566.786C579.527 566.212 579.43 565.506 579.344 564.828C579.191 563.609 579.037 562.391 578.883 561.173C578.818 560.657 578.755 560.122 578.946 559.63C579.171 559.051 579.716 558.614 580.275 558.244M587.277 561.748C587.535 561.576 587.804 561.391 587.917 561.126C588.276 560.278 586.866 559.715 585.827 559.735C584.318 559.764 582.383 560.648 582.845 561.896C583.112 562.619 584.136 562.953 584.996 562.82C585.856 562.687 586.585 562.21 587.277 561.748H587.277Z" fill="#00160A"/>
<path d="M904.341 358.357C906.522 355.322 911.308 354.371 915.319 355.18C919.331 355.988 922.757 358.182 926.057 360.323C939.041 368.749 952.025 377.176 965.009 385.602C971.977 390.125 979.671 395.902 979.269 403.451C979.047 407.628 976.296 411.342 973.635 414.826C963.345 428.299 953.054 441.771 942.764 455.244C936.967 462.834 938.567 472.803 936.815 481.784C934.047 495.975 922.847 507.629 912.476 518.852C902.105 530.076 891.728 542.609 891.145 556.993C890.451 574.137 881.076 590.881 865.982 601.939C870.361 592.711 874.739 583.482 879.117 574.253C882.241 567.669 885.133 559.477 879.906 553.992C877.541 551.51 873.965 550.198 870.534 548.974C863.734 546.55 856.934 544.126 850.135 541.702C848.728 541.201 847.278 540.691 845.758 540.683C841.019 540.659 838.2 545.124 836.278 548.888C829.631 561.909 821.141 574.22 811.06 585.454C816.267 569.45 826.097 554.925 835.826 540.602C837.471 538.181 839.509 535.516 842.701 535.056C843.959 534.875 844.622 533.687 845.051 532.643C850.327 519.784 850.836 505.482 846.483 492.364C845.241 488.62 846.771 484.65 848.284 480.981C852.19 471.514 856.096 462.047 860.002 452.58C857.764 449.217 851.864 449.316 848.841 446.454C844.951 442.771 847.885 436.914 850.933 432.674C868.735 407.902 886.538 383.129 904.341 358.357ZM663.19 261.326C667.426 300.051 658.087 338.82 648.801 376.874C695.919 372.905 743.037 368.936 790.155 364.968C791.507 364.854 792.984 364.766 794.107 365.43C795.605 366.315 795.835 368.119 795.921 369.691C798.123 409.964 799.459 450.273 799.926 490.589C799.937 491.6 799.896 492.728 799.076 493.445C798.374 494.059 797.301 494.188 796.311 494.283C730.298 500.643 664.283 507.003 598.269 513.363C592.561 513.913 584.429 512.627 584.764 507.645C586.254 485.431 585.384 463.098 582.168 441.022C564.624 440.448 546.961 442.762 530.392 447.803C526.632 448.946 522.112 452.021 524.14 455C537.552 474.707 520.905 504.329 539.122 520.871C545.386 526.559 544.953 535.507 543.712 543.305C541.051 560.02 536.53 576.512 530.233 592.474C533.277 574.101 536.321 555.728 539.365 537.354C539.954 533.802 540.473 529.923 538.344 526.847C536.377 524.007 532.612 522.55 529.016 521.444C517.646 517.948 505.549 516.246 493.49 516.447C489.809 516.509 485.874 516.829 483.008 518.837C479.413 521.354 478.546 525.729 477.927 529.705C475.28 546.701 472.632 563.698 469.985 580.694C467.969 579.268 467.327 576.862 466.971 574.625C462.853 548.742 480.536 523.194 477.386 497.209C475.762 483.818 468.646 471.323 459.69 460.334C453.506 452.745 453.159 442.579 455.467 433.499C457.774 424.419 462.428 415.928 465.567 407.039C479.528 367.507 462.541 325.274 445.746 286.584C479.213 272.592 518.266 275.302 555.341 277.198C592.416 279.094 632.29 279.227 663.19 261.326ZM909.333 433.835C906.574 436.907 905.403 440.805 904.299 444.582C902.113 452.055 899.928 459.529 897.743 467.003C894.78 477.138 890.993 488.281 880.718 493.725C879.899 494.159 878.95 494.562 878.017 494.37C876.857 494.131 876.2 493.09 875.717 492.144C869.159 479.31 868.34 464.336 873.467 451.018C873.778 450.21 872.832 449.366 871.854 449.299C870.877 449.232 869.961 449.694 869.159 450.185C860.746 455.344 857.523 464.688 854.847 473.327C853.66 477.156 852.474 480.986 851.288 484.815C850.768 486.493 850.245 488.186 850.137 489.921C849.933 493.168 851.184 496.331 852.089 499.487C855.511 511.422 853.965 524.385 847.798 535.456C846.889 537.088 849.29 538.573 851.247 539.203C860.21 542.087 869.174 544.971 878.138 547.854C881.635 548.98 886.559 549.663 888.217 546.76C896.239 532.709 904.481 518.389 917.25 507.303C924.61 500.913 929.121 492.387 931.674 483.623C934.226 474.859 934.949 465.783 935.661 456.764C932.563 457.745 932.293 461.378 932.307 464.243C932.336 470.559 931.065 476.878 928.572 482.811C928.051 484.053 927.35 485.395 925.953 485.919C924.556 486.443 922.499 485.391 922.968 484.134C926.571 474.482 927.914 464.198 926.891 454.091C926.573 450.957 925.901 447.605 923.337 445.384C923.615 450.332 923.893 455.302 923.316 460.23C922.318 468.757 918.799 476.888 915.311 484.905C914.859 485.946 914.311 487.081 913.161 487.57C912.011 488.059 910.225 487.284 910.525 486.203C912.266 479.95 914.008 473.696 915.749 467.443C918.621 457.129 921.444 446.033 916.999 436.148C914.76 436.018 914.233 438.8 914.433 440.742C915.802 454.044 911.569 467.246 907.379 480.096C906.89 481.596 905.159 483.472 903.813 482.44C903.233 481.995 903.207 481.228 903.254 480.557C903.6 475.606 905.539 470.862 906.981 466.062C910.13 455.583 910.933 444.575 909.333 433.835ZM473.73 401.709C470.157 405.501 468.56 410.374 467.052 415.096C464.663 422.572 462.274 430.048 459.886 437.524C459.075 440.062 458.257 442.648 458.354 445.281C458.501 449.224 460.671 452.867 462.792 456.355C467.58 464.231 472.369 472.107 477.157 479.982C482.375 488.565 481.977 498.766 482.463 508.464C482.518 509.565 482.603 510.714 483.239 511.668C483.876 512.622 485.243 513.304 486.432 512.916C492.578 510.909 499.414 511.852 505.885 512.821C512.398 513.797 518.912 514.774 525.425 515.75C527.107 516.002 528.581 514.518 528.766 513.043C528.95 511.568 528.258 510.132 527.709 508.727C522.866 496.332 528.712 482.59 526.091 469.699C523.606 457.482 513.896 447.463 504.55 438.084C501.946 435.472 502.759 431.537 503.356 428.121C504.308 422.676 504.312 417.105 503.369 411.659C503.012 409.595 502.4 407.373 500.52 406.072C498.065 404.373 494.243 404.995 491.899 406.809C489.556 408.624 488.397 411.317 487.595 413.954C484.665 423.579 485.323 433.904 481.555 443.306C481.034 444.603 480.286 446.008 478.81 446.503C477.335 446.998 475.266 445.719 475.943 444.477C483.267 431.057 482.41 414.504 473.73 401.709ZM792.309 367.816C770.304 371.507 747.91 373.449 725.499 373.609C720.288 373.647 715.1 374.189 709.926 374.73C690.307 376.783 670.689 378.836 651.07 380.889C650.281 380.972 649.444 381.071 648.826 381.506C648.194 381.95 647.909 382.662 647.691 383.344C646.516 387.013 646.406 390.936 647.376 394.65C668.269 389.041 693.05 397.967 703.247 414.775C712.755 430.448 711.847 450.693 700.252 465.266C688.656 479.84 666.616 487.755 646.729 483.841C626.842 479.926 610.667 464.035 609.431 446.35C609.301 444.496 606.724 443.683 604.627 443.32C599.487 442.43 594.347 441.54 589.207 440.649C588.588 440.542 587.904 440.443 587.358 440.718C586.534 441.133 586.477 442.13 586.519 442.957L589.822 506.942C589.849 507.469 589.886 508.023 590.214 508.467C590.758 509.201 591.888 509.38 592.889 509.463C598.413 509.92 603.98 509.557 609.509 509.145C671.235 504.547 732.347 493.768 794.273 492.2C796.456 492.145 797.122 489.623 797.132 487.725C797.338 447.721 795.729 407.71 792.309 367.816ZM877.199 458.828C876.612 458.456 875.733 458.679 875.241 459.143C874.749 459.608 874.548 460.245 874.363 460.855C873.907 462.358 873.449 463.876 873.381 465.43C873.313 466.983 873.638 468.527 873.962 470.056C875.027 475.087 876.093 480.12 877.158 485.151C877.292 485.784 877.448 486.457 877.965 486.918C878.481 487.379 879.488 487.478 879.906 486.947C884.637 480.936 889.433 474.808 891.908 467.85C892.216 466.985 892.305 465.769 891.33 465.45C886.306 463.808 881.538 461.573 877.199 458.828ZM615.808 446.472C615.448 446.473 615.071 446.477 614.753 446.623C614.03 446.953 613.94 447.812 613.991 448.52C614.399 454.219 617.749 459.4 621.018 464.352C621.535 465.135 622.091 465.953 622.985 466.411C623.88 466.869 625.219 466.805 625.763 466.037C627.962 462.93 630.573 460.043 633.527 457.452C634.749 456.381 634.395 454.579 633.664 453.212C632.933 451.844 631.888 450.496 631.97 448.99C632.017 448.125 632.317 447.014 631.45 446.586C631.146 446.436 630.779 446.433 630.43 446.434C625.556 446.447 620.681 446.46 615.808 446.472ZM684.252 424.405C677.541 415.721 663.839 411.675 652.427 415.008C651.017 415.419 649.494 416.066 649.031 417.294C648.768 417.993 648.908 418.754 649.06 419.477C650.744 427.457 653.786 435.219 658.058 442.432C653.376 442.889 648.694 443.347 644.012 443.804C642.066 443.993 640.049 444.204 638.382 445.096C636.715 445.987 635.507 447.769 636.088 449.393C638.934 457.349 647.24 464.145 656.826 464.316C661.27 464.396 665.607 463.113 669.621 461.454C674.328 459.509 678.797 456.98 682.207 453.555C690.083 445.643 690.963 433.09 684.252 424.405ZM916.075 359.469C915.36 359.214 914.577 358.966 913.829 359.138C913.046 359.317 912.495 359.91 912.002 360.469C891.011 384.273 872.172 409.509 855.717 435.869C853.421 439.546 856.494 443.93 859.434 447.244C860.902 448.899 863.737 450.648 865.339 449.089C867.357 447.123 870.667 445.999 873.525 446.877C876.384 447.755 878.163 450.985 876.608 453.247C875.484 454.883 877.685 456.702 879.608 457.617C883.451 459.446 887.393 461.118 891.417 462.625C891.976 462.834 892.627 463.04 893.172 462.803C893.691 462.577 893.901 462.041 894.063 461.556C895.549 457.114 897.035 452.672 898.52 448.23C899.254 446.039 899.744 443.195 897.581 441.9C895.531 440.673 893.48 439.446 891.43 438.219C890.027 437.379 888.524 436.42 888.09 434.989C887.425 432.794 889.831 430.589 892.421 430.294C895.011 429.998 897.545 431.085 899.691 432.379C902.715 434.201 906.542 431.422 908.806 428.901C905.752 427.314 902.838 424.85 902.718 421.76C902.597 418.669 906.922 415.726 909.8 417.545C912.589 419.308 916.84 419.361 918.671 421.901C919.92 423.634 919.476 425.976 918.205 427.696C916.934 429.416 914.977 430.651 913.066 431.844C915.808 432.08 918.478 432.928 920.747 434.287C921.571 432.2 922.395 430.114 923.22 428.027C923.411 427.542 923.62 427.033 924.059 426.69C924.907 426.03 926.226 426.234 927.311 426.533C930.159 427.318 932.951 428.544 934.83 430.561C936.709 432.579 937.493 435.51 936.18 437.842C934.866 440.173 931.16 441.416 928.649 440.011C926.735 438.939 924.787 436.543 922.931 437.689C927.056 440.481 929.89 444.674 930.685 449.165C943.674 431.974 956.524 414.704 969.232 397.356C970.445 395.7 971.424 393.09 969.448 392.138C950.355 382.934 936.277 366.667 916.075 359.469ZM971.168 400.862C970.576 400.686 970.036 401.2 969.688 401.652C958.563 416.122 947.438 430.592 936.312 445.061C935.415 446.229 934.495 447.443 934.233 448.829C933.971 450.215 934.557 451.826 936.009 452.443C938.412 453.465 940.927 451.317 942.47 449.418C952.806 436.689 963.143 423.96 973.479 411.231C975.782 408.396 973.833 404.52 971.862 401.502C971.692 401.241 971.494 400.959 971.168 400.862ZM659.071 267.241C639.786 279.325 614.63 281.28 590.855 281.566C547.957 282.083 504.762 278.547 462.313 283.955C457.863 284.522 452.065 286.941 453.406 290.672C462.82 316.835 472.291 343.248 475.046 370.556C476.487 384.847 476.24 399.851 483.836 412.59C483.624 405.346 494.039 399.685 501.442 403.02C500.178 394.497 498.914 385.973 497.65 377.449C497.171 374.22 495.682 370.134 491.937 370.019C494.265 367.108 499.057 365.913 502.807 367.31C503.434 367.544 504.067 367.874 504.354 368.412C504.832 369.306 504.178 370.318 503.644 371.187C500.856 375.728 501.12 381.569 504.309 385.906C509.597 382.46 515.05 378.941 521.423 377.418C527.796 375.894 535.391 376.806 539.72 381.146C541.908 383.341 546.361 382.342 548.356 380.013C550.352 377.683 550.643 374.615 551.083 371.736C551.523 368.857 552.354 365.749 554.981 363.954C558.054 361.854 562.751 362.366 565.864 364.42C568.977 366.474 570.747 369.725 571.819 372.991C572.688 375.637 573.545 378.78 576.467 379.841C578.713 380.656 581.285 379.842 583.424 378.832C588.645 376.367 593.016 372.759 597.906 369.826C602.797 366.893 608.623 364.575 614.513 365.259C620.402 365.943 625.934 370.603 625.091 375.714C623.755 383.81 623.919 392.091 625.575 400.142C586.41 403.679 547.098 405.984 507.742 407.053C507.017 407.072 506.827 407.928 506.859 408.557C507.161 414.4 507.464 420.243 507.766 426.086C507.982 430.265 508.213 434.518 509.833 438.458C511.453 442.398 514.699 446.05 519.249 447.419C520.192 447.702 521.263 447.877 522.163 447.504C544.63 438.19 570.326 434.859 594.943 438.068C602.555 439.061 610.057 440.66 617.7 441.453C627.863 442.507 638.223 442.115 648.242 440.3C649.61 440.052 651.361 439.2 650.848 438.07C638.665 411.262 642.999 381.11 649.366 352.824C655.733 324.538 663.992 295.745 659.071 267.241ZM894.679 432.559C893.559 432.27 892.166 432.069 891.377 432.817C890.718 433.442 890.858 434.477 891.427 435.166C891.995 435.855 892.884 436.28 893.743 436.681C895.233 437.379 896.724 438.076 898.215 438.773C899.064 439.171 900.145 439.562 900.932 439.076C901.585 438.672 901.67 437.847 901.487 437.169C900.798 434.614 897.574 433.308 894.679 432.559ZM927.474 429.701C927.194 429.613 926.868 429.527 926.613 429.66C926.516 429.711 926.443 429.788 926.375 429.867C925.428 430.968 925.524 432.57 926.314 433.761C927.104 434.952 928.473 435.778 929.916 436.342C930.411 436.535 930.953 436.705 931.485 436.613C931.942 436.534 932.334 436.266 932.613 435.941C933.646 434.742 933.145 432.936 931.962 431.847C930.778 430.757 929.094 430.212 927.474 429.701ZM684.09 401.004C675.424 396.426 664.793 394.734 654.822 396.347C652.633 396.702 650.348 397.275 648.849 398.705C645.426 401.97 647.999 407.075 648.3 411.483C658.08 410.041 668.526 410.952 677.181 415.164C685.835 419.376 692.418 427.141 693.176 435.734C697.049 435.8 700.918 436.087 704.748 436.591C704.513 431.481 704.021 426.333 702.315 421.439C699.376 413.005 692.756 405.582 684.09 401.004ZM872.627 420.878C874.08 420.152 876.009 419.954 877.393 420.774C879.658 422.115 883.336 421.806 884.514 423.956C885.404 425.581 884.131 427.438 882.913 428.894C882.184 429.766 881.455 430.638 880.726 431.51C880.294 432.026 879.799 432.58 879.082 432.718C878.363 432.856 877.643 432.533 877 432.222C874.165 430.849 871.329 429.476 868.494 428.103C867.682 427.71 867.417 426.758 867.64 425.973C867.862 425.189 868.46 424.531 869.042 423.901C870.09 422.766 871.174 421.603 872.627 420.878ZM875.844 424.061C873.923 423.896 871.805 424.421 870.69 425.791C872.622 426.645 874.553 427.499 876.484 428.353C876.894 428.534 877.351 428.721 877.796 428.619C878.128 428.543 878.384 428.318 878.623 428.102C879.511 427.302 880.398 426.501 881.286 425.7C879.548 424.97 877.765 424.227 875.844 424.061ZM930.015 412.133C931.664 411.05 934 411.955 935.776 412.874C937.66 413.847 939.543 414.82 941.427 415.794C942.327 416.259 943.249 416.741 943.894 417.458C944.54 418.175 944.858 419.19 944.406 420.012C943.858 421.01 942.418 421.395 941.684 422.299C940.727 423.478 941.125 425.331 939.843 426.249C938.542 427.18 936.609 426.434 935.171 425.671C932.517 424.262 929.863 422.853 927.21 421.444C926.407 421.018 925.56 420.55 925.166 419.807C924.772 419.065 925.093 417.982 926.009 417.793C928.591 417.259 927.897 413.523 930.015 412.133ZM908.188 419.216C906.182 419.038 905.023 421.487 905.939 423.049C906.856 424.61 908.879 425.383 910.751 426.035C912.072 426.495 913.676 426.93 914.828 426.203C916.484 425.159 915.59 422.81 914.108 421.584C912.506 420.258 910.389 419.411 908.188 419.216ZM933.527 416.073C933.019 415.824 932.31 415.598 931.916 415.972C930.646 417.176 930.461 419.141 931.49 420.509C932.519 421.876 934.665 422.518 936.444 421.99C937.584 421.652 938.5 420.918 939.38 420.203C940.017 419.685 939.165 418.831 938.404 418.459C936.779 417.664 935.153 416.868 933.527 416.073ZM883.15 406.532C883.262 405.252 885.175 404.62 886.58 405.017C887.985 405.415 888.998 406.449 890.061 407.341C891.124 408.232 892.486 409.066 893.949 408.89C895.807 408.668 897.36 410.405 897.329 412.034C897.298 413.663 896.176 415.111 895.014 416.389C893.851 417.668 892.567 418.949 892.106 420.528C891.929 421.135 891.149 421.489 890.429 421.475C889.709 421.462 889.039 421.169 888.407 420.868C884.889 419.195 881.63 417.109 878.746 414.687C878.106 414.15 877.487 413.2 878.172 412.705C880.459 411.051 882.926 409.11 883.15 406.532ZM915.106 401.505C916.148 401.49 917.086 402.016 917.95 402.522C920.622 404.087 923.294 405.651 925.966 407.216C926.422 407.483 926.889 407.758 927.205 408.149C928.116 409.275 927.462 410.817 926.787 412.062C926.053 413.418 925.318 414.774 924.584 416.13C924.295 416.664 923.969 417.233 923.372 417.514C922.355 417.995 921.127 417.427 920.159 416.876C916.071 414.545 911.981 412.214 907.892 409.884C906.716 409.212 907.423 407.62 908.285 406.652C909.417 405.381 910.645 404.174 911.959 403.043C912.836 402.287 913.871 401.522 915.106 401.505ZM888.237 409.707C886.935 409.301 885.347 409.363 884.326 410.174C883.305 410.984 883.213 412.633 884.358 413.306C885.86 414.189 887.362 415.072 888.864 415.955C889.14 416.117 889.449 416.287 889.779 416.25C890.09 416.215 890.332 416.006 890.549 415.809C891.181 415.234 891.83 414.636 892.148 413.89C892.467 413.145 892.371 412.205 891.675 411.688C890.623 410.908 889.539 410.113 888.237 409.707ZM915.912 406.258C914.92 405.896 913.724 405.785 912.805 406.269C911.885 406.754 911.475 407.975 912.199 408.666C914.376 410.744 917.211 412.297 920.308 413.107C920.814 413.24 921.351 413.354 921.866 413.251C923.399 412.945 923.6 410.951 922.628 409.877C921.656 408.803 920.067 408.341 918.7 407.665C917.765 407.202 916.904 406.619 915.912 406.258ZM911.807 367.056C913.129 367.149 914.283 367.839 915.365 368.507C929.339 377.125 943.314 385.744 957.288 394.363C958.104 394.866 958.983 395.451 959.183 396.303C959.346 396.998 959.01 397.701 958.673 398.347C956.865 401.814 954.785 405.174 952.454 408.395C951.926 409.125 951.323 409.892 950.393 410.193C949.518 410.477 948.541 410.282 947.649 410.039C940.794 408.167 935.402 403.666 929.934 399.614C921.95 393.697 913.286 388.473 904.111 384.046C903.178 383.595 902.199 383.121 901.627 382.338C901.055 381.554 901.072 380.362 901.954 379.839C906.068 377.398 908.736 373.209 908.932 368.885C908.984 367.732 910.483 366.964 911.807 367.056ZM893.723 391.28C894.543 391.125 895.377 391.43 896.132 391.749C900.251 393.487 904.024 395.843 907.233 398.681C908.006 399.363 908.101 400.463 907.758 401.373C907.414 402.282 906.705 403.048 906.011 403.791C904.895 404.985 903.705 406.228 902.059 406.795C900.282 407.407 898.214 407.112 896.531 406.325C894.848 405.538 893.497 404.305 892.307 403.006C890.754 401.311 889.363 399.278 889.604 397.122C889.762 395.709 890.605 394.432 891.428 393.206C891.98 392.383 892.651 391.482 893.723 391.28ZM908.453 379.52C907.96 380.276 907.534 381.367 908.332 381.889C919.735 389.35 931.138 396.81 942.541 404.27C944.415 405.496 947.326 406.644 948.802 405.06C950.496 403.242 952.078 401.344 953.539 399.379C953.939 398.841 954.347 398.226 954.203 397.598C954.071 397.025 953.516 396.609 952.994 396.241C940.439 387.396 927.146 379.343 913.254 372.164C911.653 374.616 910.053 377.068 908.453 379.52ZM895.771 396.306C894.699 396.312 893.607 397.273 894.046 398.124C893.98 398.535 896.042 401.821 898.633 402.696C901.223 403.571 902.88 402.877 902.948 401.401C902.991 400.47 902.056 399.752 901.206 399.183C900.348 398.61 899.49 398.037 898.633 397.464C897.782 396.895 896.844 396.301 895.771 396.306ZM562.063 368.041C561.103 367.788 560.129 368.388 559.453 369.032C556.474 371.871 555.84 375.943 554.564 379.622C553.289 383.301 550.552 387.229 546.159 387.671C539.977 388.292 535.826 381.798 529.734 380.693C525.697 379.961 521.676 381.734 518.055 383.45C514.575 385.099 511.031 386.789 508.318 389.3C505.605 391.81 503.814 395.326 504.599 398.702C504.948 400.207 505.914 401.715 507.539 402.319C508.399 402.639 509.359 402.677 510.294 402.706C525.1 403.158 539.91 402.17 554.682 401.181C575.774 399.771 596.866 398.36 617.959 396.949C620.529 391.731 621.205 385.823 619.868 380.267C618.994 376.638 617.301 372.807 618.887 369.364C609.413 369.591 600.065 372.737 592.888 378.115C589.295 380.807 585.823 384.21 581.107 384.659C576.732 385.076 572.547 382.694 569.858 379.666C567.169 376.638 565.613 372.989 563.657 369.563C563.296 368.93 562.842 368.245 562.063 368.041ZM370.501 208.029C371.835 207.989 373.298 208.736 373.444 209.889C375.831 228.635 382.474 246.965 392.879 263.518C399.321 273.767 407.158 283.298 414.974 292.799C420.412 299.41 426.227 306.299 434.713 309.716C436.969 310.624 436.654 313.451 436.049 315.547C433.431 324.605 432.21 333.967 432.428 343.305C432.448 344.187 432.475 345.102 432.076 345.913C430.722 348.667 426.083 348.208 422.889 347.082C403.125 340.111 387.951 326.092 373.777 312.243C355.374 294.263 337.245 275.492 326.374 253.362C325.635 251.858 324.917 250.275 325.041 248.642C325.167 246.979 326.151 245.467 327.148 244.044C337.004 229.979 350.714 217.97 366.82 209.293C367.955 208.682 369.167 208.069 370.501 208.029ZM614.771 304.057C615.973 303.114 617.698 302.34 619.162 302.941C620.611 303.536 621.018 305.129 621.251 306.507C622.78 315.545 624.309 324.584 625.838 333.622C625.896 333.964 625.947 334.338 625.742 334.635C625.47 335.027 624.874 335.121 624.351 335.175C613.522 336.283 602.63 336.922 591.728 337.087C585.452 337.182 579.171 337.12 572.897 337.308C544.953 338.149 517.541 343.93 489.767 346.727C487.761 346.929 485.394 346.998 484.105 345.648C482.152 343.602 484.462 340.636 486.657 338.784C492.097 334.193 497.538 329.603 502.978 325.013C505.509 322.877 508.581 320.576 512.074 321.007C514.955 321.362 517.045 323.464 519.3 325.062C521.555 326.66 524.996 327.796 527.232 326.178C535.938 319.879 545.055 314.008 554.523 308.603C557.795 306.736 561.788 304.854 565.426 306.11C574.438 309.222 583.487 312.254 592.571 315.204C595.381 316.116 598.387 317.035 601.316 316.475C607.853 315.227 609.805 307.955 614.771 304.057ZM426.006 337.03C425.507 336.675 424.784 336.735 424.148 336.83C422.094 337.136 420.071 337.606 418.115 338.232C417.81 338.33 417.483 338.449 417.325 338.696C417.007 339.194 417.577 339.757 418.096 340.105C420.832 341.94 423.729 343.594 426.752 345.051C426.7 342.917 426.648 340.782 426.597 338.648C426.582 338.063 426.527 337.401 426.006 337.03ZM564.659 309.972C562.232 309.153 559.591 310.431 557.419 311.68C546.842 317.758 536.628 324.314 526.832 331.312C524.836 332.738 521.779 331.731 519.805 330.283C517.83 328.835 516.087 326.92 513.569 326.415C510.039 325.707 506.751 328.043 504.122 330.209C499.333 334.154 494.509 338.132 490.703 342.816C499.608 342.79 508.389 341.164 517.144 339.752C549.611 334.515 582.691 332.15 615.706 332.704C617.725 332.738 619.421 331.211 619.999 329.53C620.576 327.849 620.293 326.048 620.005 324.311C619.379 320.542 618.753 316.773 618.127 313.004C617.979 312.111 617.797 311.154 617.076 310.505C616.355 309.855 614.9 309.765 614.399 310.556C611.827 314.62 608.773 319.037 603.664 320.384C599.27 321.542 594.588 320.078 590.308 318.633C581.758 315.746 573.209 312.859 564.659 309.972ZM826.489 316.974C828.394 316.315 830.563 316.653 832.499 317.24C836.047 318.316 839.263 320.208 841.729 322.671C843.849 324.787 845.464 327.535 845.018 330.314C844.855 331.334 844.422 332.308 843.928 333.244C842.056 336.79 838.838 340.189 834.418 340.876C832.099 341.236 829.708 340.804 827.478 340.145C824.899 339.383 822.44 338.313 820.192 336.976C819 336.267 817.816 335.425 817.293 334.255C816.933 333.448 816.922 332.56 816.935 331.695C816.969 329.555 817.131 327.379 817.99 325.373C819.077 322.835 821.203 320.741 823.457 318.871C824.363 318.119 825.325 317.377 826.489 316.974ZM833.552 320.28C832.142 319.838 830.578 319.715 829.134 320.062C828.354 320.25 827.624 320.569 826.941 320.946C824.021 322.56 821.97 325.312 821.473 328.288C820.975 331.264 822.039 334.41 824.309 336.68C825.764 338.133 828.136 338.756 830.335 338.514C832.534 338.273 834.55 337.247 836.126 335.892C838.69 333.688 840.181 330.494 839.775 327.38C839.369 324.266 836.944 321.343 833.552 320.28ZM358.82 224.934C358.01 223.806 356.847 222.525 355.331 222.711C354.756 222.781 354.249 223.063 353.769 223.347C348.819 226.282 344.634 230.186 341.616 234.685C340.913 235.734 340.255 236.989 340.76 238.121C343.03 243.215 342.947 248.838 342.831 254.3C342.742 258.501 342.224 263.406 338.144 265.664C346.201 274.658 354.257 283.652 362.313 292.646C376.009 307.936 389.948 323.434 407.935 334.885C408.911 335.506 410.079 336.147 411.248 335.876C416.215 334.725 421.183 333.573 426.15 332.422C426.671 332.301 427.213 332.171 427.613 331.858C428.152 331.437 428.327 330.777 428.474 330.16C429.192 327.146 429.686 323.496 427.025 321.464C421.114 316.949 424.06 307.816 419.017 302.566C400.67 283.465 385.024 261.996 376.691 238.193C376.021 236.279 374.747 233.928 372.45 234.068C366.418 234.435 362.02 229.393 358.82 224.934ZM832.767 324.495C834.594 324.517 836.656 324.845 837.657 326.173C838.554 327.361 838.273 328.949 837.678 330.273C836.893 332.018 835.568 333.634 833.695 334.562C831.823 335.49 829.364 335.626 827.539 334.629C825.714 333.631 824.799 331.412 825.776 329.743C826.219 328.988 826.977 328.401 827.434 327.652C827.792 327.063 827.957 326.387 828.399 325.843C829.328 324.7 831.158 324.475 832.767 324.495ZM833.581 326.928C831.083 326.9 828.739 328.72 828.492 330.881C828.391 331.763 828.822 332.86 829.833 332.982C830.591 333.073 831.256 332.565 831.766 332.069C832.843 331.02 833.769 329.852 834.514 328.603C834.763 328.184 834.984 327.647 834.655 327.271C834.416 326.998 833.977 326.932 833.581 326.928ZM428.483 311.555C428.004 310.912 426.872 310.354 426.35 310.971C426.152 311.204 426.152 311.52 426.18 311.808C426.365 313.74 427.457 315.595 429.15 316.856C429.892 315.129 429.637 313.102 428.483 311.555ZM822.685 167.957C823.12 166.519 825.208 165.871 826.863 166.248C828.518 166.625 829.811 167.719 831 168.788C844.791 181.193 855.676 196.026 862.802 212.124C863.291 213.229 863.766 214.457 863.3 215.57C859.705 224.139 852.767 231.284 845.965 238.23C841.618 242.669 837.271 247.107 832.925 251.546C828.775 255.783 824.624 260.021 820.335 264.152C798.494 285.185 772.686 303.576 742.797 314.892C741.669 315.319 740.459 315.746 739.244 315.575C738.029 315.404 736.891 314.379 737.209 313.347C740.904 301.344 744.623 288.796 741.658 276.641C740.943 273.71 740.145 270.019 742.934 268.255C765.508 253.972 781.761 233.556 797.337 213.418C801.253 208.354 805.159 203.276 808.625 197.971C814.778 188.55 819.518 178.433 822.685 167.957ZM756.171 299.86C753.638 298.19 750.097 297.751 747.128 298.738C746.579 298.921 746.034 299.159 745.656 299.55C745.213 300.007 745.051 300.616 744.909 301.201C744.192 304.156 743.626 307.139 743.214 310.139C744.513 310.73 746.086 310.169 747.386 309.579C750.802 308.029 754.093 306.27 757.226 304.319C758.053 303.804 758.3 302.774 758.008 301.927C757.715 301.079 756.982 300.395 756.171 299.86ZM538.331 302.545C539.278 302.452 540.287 302.368 541.14 302.738C541.992 303.109 542.541 304.123 541.984 304.795C541.574 305.29 540.787 305.391 540.088 305.45C522.236 306.955 504.385 308.46 486.533 309.965C485.42 310.059 483.835 309.781 483.933 308.812C484.009 308.056 485.103 307.783 485.971 307.697C503.424 305.98 520.878 304.262 538.331 302.545ZM508.279 297.074C509.972 297.031 512.232 297.416 512.351 298.884C503.405 299.991 494.457 301.099 485.511 302.206C484.064 302.385 482.442 302.527 481.278 301.76C480.115 300.992 480.232 298.961 481.683 298.808C490.512 297.88 499.389 297.301 508.279 297.074ZM841.666 184.039C835.284 186.446 827.777 186.503 821.348 184.192C819.946 183.689 818.654 185.051 817.94 186.214C802.882 210.737 788.003 235.999 765.05 255.361C762.992 257.097 760.693 259.193 761.072 261.663C762.287 269.579 757.423 277.939 749.366 281.782C745.708 283.527 745.751 288.029 746.287 291.625C746.502 293.064 747.127 294.869 748.792 294.991C753.675 295.349 758.361 297.437 761.544 300.674C762.548 301.695 764.452 301.057 765.761 300.342C798.702 282.348 824.013 255.771 848.726 229.657C849.579 228.756 850.486 227.621 850.042 226.52C846.302 217.264 846.901 206.745 851.675 197.855C848.858 192.986 845.501 188.351 841.666 184.039ZM889.813 259.52C890.945 259.544 892.11 259.593 893.14 260.001C896.005 261.136 896.614 264.389 896.711 267.124C896.799 269.612 896.782 272.134 896.086 274.549C895.39 276.964 893.95 279.291 891.647 280.773C890.613 281.439 889.413 281.924 888.142 282.109C886.18 282.395 884.17 281.956 882.305 281.353C879.819 280.549 877.461 279.446 875.321 278.084C874.276 277.418 873.197 276.547 873.163 275.422C873.085 272.826 873.42 270.221 874.154 267.704C874.623 266.095 875.276 264.489 876.464 263.189C879.477 259.892 884.97 259.418 889.813 259.52ZM890.426 261.974C888.117 261.43 885.662 261.358 883.316 261.765C882.151 261.968 880.96 262.315 880.142 263.064C879.697 263.473 879.388 263.977 879.085 264.474C878.33 265.715 877.575 266.956 876.819 268.196C876.421 268.851 876.018 269.511 875.784 270.222C875.083 272.352 876.01 274.717 877.722 276.358C879.433 278 881.827 278.999 884.277 279.61C888.146 280.575 892.261 277.974 893.726 274.718C895.192 271.461 894.65 267.803 893.844 264.377C893.534 263.061 891.917 262.326 890.426 261.974ZM881.585 268.587C883.826 266.966 886.563 265.24 889.387 265.872C891.61 266.37 893.14 268.325 893.333 270.312C893.525 272.3 892.579 274.267 891.209 275.867C890.699 276.462 890.112 277.031 889.357 277.38C887.877 278.063 885.995 277.757 884.584 276.971C883.173 276.184 882.141 274.988 881.174 273.799C880.329 272.76 879.472 271.493 879.948 270.291C880.229 269.582 880.922 269.066 881.585 268.587ZM755.437 264.069C754.944 264.021 754.472 264.249 754.067 264.499C752.534 265.446 751.416 266.807 750.329 268.141C749.342 269.353 748.354 270.564 747.367 271.776C746.725 272.565 746.053 273.439 746.128 274.403C746.228 275.7 747.778 276.67 749.273 276.634C750.768 276.597 752.115 275.757 752.988 274.702C753.862 273.647 754.342 272.39 754.809 271.155C755.322 269.796 755.836 268.437 756.35 267.078C756.779 265.941 756.806 264.203 755.437 264.069ZM890.595 269.596C889.567 268.615 887.903 268.176 886.421 268.492C884.939 268.808 883.7 269.868 883.311 271.15C882.943 272.369 883.361 273.756 884.417 274.62C885.121 275.196 886.114 275.533 887.07 275.408C888.418 275.232 889.438 274.2 889.909 273.089C890.38 271.978 890.425 270.771 890.595 269.596ZM337.53 241.111C337.143 240.787 336.499 241.011 336.059 241.281C332.815 243.281 331.484 247.017 331.727 250.467C331.971 253.917 333.541 257.178 335.089 260.362C335.265 260.725 335.564 261.153 336.014 261.106C338.162 259.456 338.381 256.661 338.445 254.17C338.479 252.884 338.512 251.598 338.546 250.312C338.621 247.395 338.69 244.429 337.809 241.613C337.752 241.432 337.686 241.242 337.53 241.111ZM369.156 213.499C368.513 213.008 367.513 213.265 366.738 213.583C364.624 214.45 362.655 215.584 360.913 216.938C360.208 217.487 359.499 218.143 359.408 218.962C359.325 219.715 359.786 220.425 360.261 221.059C362.456 223.991 365.306 226.551 368.605 228.555C369.359 229.012 370.199 229.456 371.117 229.433C372.036 229.411 372.981 228.706 372.801 227.923C371.785 223.508 370.769 219.094 369.753 214.68C369.654 214.25 369.535 213.788 369.156 213.499ZM853.463 200.821C851.065 204.965 851.444 209.859 851.88 214.482C852.088 216.692 852.296 218.902 852.505 221.112C852.574 221.841 853.031 222.825 853.84 222.623C854.781 220.334 857.319 218.796 858.477 216.583C860.308 213.086 858.276 209.057 856.274 205.632C855.337 204.028 854.4 202.424 853.463 200.821ZM825.853 168.72C823.403 170.597 824.281 174.118 822.849 176.669C822.297 177.65 821.39 178.509 821.174 179.585C820.958 180.661 822.006 182.011 823.194 181.655C824.671 181.213 826.256 181.88 827.814 181.968C830.951 182.143 833.554 180.007 835.722 178.029C833.483 174.227 830.031 170.97 825.853 168.72Z" fill="#00160A"/>
</svg>
